<?xml version="1.0" encoding="utf-8"?>
<!-- Generator: Adobe Illustrator 16.0.0, SVG Export Plug-In . SVG Version: 6.00 Build 0)  -->
<!DOCTYPE svg PUBLIC "-//W3C//DTD SVG 1.1//EN" "http://www.w3.org/Graphics/SVG/1.1/DTD/svg11.dtd">
<svg version="1.1" id="Layer_1" xmlns="http://www.w3.org/2000/svg" xmlns:xlink="http://www.w3.org/1999/xlink" x="0px" y="0px"
	 width="64px" height="64px" viewBox="0 0 64 64" enable-background="new 0 0 64 64" xml:space="preserve">
<g>
	<path fill="#CF0303" d="M63.99,0.059h-3.582C57.723,17.334,45.221,39.49,45.09,39.723l-0.063,0.123
		c-2.109,4.348-4.746,6.822-7.834,7.35c-5.831,0.99-11.884-4.938-11.943-4.993L10.69,30.32l-0.201-0.145
		c-3.119-1.99-6.328-2.639-9.541-1.924c-0.313,0.068-0.619,0.15-0.918,0.24v4.532c2.199-1.016,4.951-1.261,8.063,0.687
		l14.225,11.595c0.813,0.782,6.719,6.266,13.543,6.266c0.671,0,1.347-0.053,2.033-0.168c4.515-0.76,8.197-4.002,10.939-9.633
		c0.844-1.494,11.541-20.64,15.156-37.659V0.059L63.99,0.059z"/>
</g>
<circle cx="11.208" cy="23.264" r="3.2"/>
<path d="M22.409,48.596c0,1.771-1.434,3.203-3.201,3.203c-1.766,0-3.199-1.434-3.199-3.203c0-1.766,1.434-3.199,3.199-3.199
	C20.975,45.396,22.409,46.83,22.409,48.596z"/>
<path d="M35.746,41.398c0,1.768-1.432,3.197-3.199,3.197c-1.769,0-3.203-1.431-3.203-3.197c0-1.768,1.434-3.201,3.203-3.201
	C34.314,38.197,35.746,39.631,35.746,41.398z"/>
<path d="M53.082,10.996c0,1.764-1.434,3.199-3.203,3.199c-1.768,0-3.201-1.436-3.201-3.199c0-1.768,1.434-3.203,3.201-3.203
	C51.648,7.793,53.082,9.229,53.082,10.996z"/>
<circle cx="57.613" cy="38.73" r="3.201"/>
<path d="M55.48,53.934c0,1.767-1.433,3.195-3.197,3.195c-1.771,0-3.203-1.43-3.203-3.195c0-1.77,1.432-3.203,3.203-3.203
	C54.049,50.73,55.48,52.164,55.48,53.934z"/>
<circle cx="7.208" cy="45.932" r="3.197"/>
</svg>
