<?xml version="1.0" encoding="utf-8"?>
<!-- Generator: Adobe Illustrator 16.0.0, SVG Export Plug-In . SVG Version: 6.00 Build 0)  -->
<!DOCTYPE svg PUBLIC "-//W3C//DTD SVG 1.1//EN" "http://www.w3.org/Graphics/SVG/1.1/DTD/svg11.dtd">
<svg version="1.1" id="Layer_1" xmlns="http://www.w3.org/2000/svg" xmlns:xlink="http://www.w3.org/1999/xlink" x="0px" y="0px"
	 width="64px" height="64px" viewBox="0 0 64 64" enable-background="new 0 0 64 64" xml:space="preserve">
<path fill="#C3002D" d="M0.098,0.014v64.015h63.9V0.014H0.098z M60.98,21.308H44.919v-9.282H60.98V21.308z M23.624,48.74V38.159
	h18.103V48.74H23.624z M41.727,51.967v8.475H23.624v-8.475H41.727z M41.727,24.53v10.404H23.624V24.53H41.727z M23.624,21.308
	v-9.282h18.103v9.282H23.624z M20.429,34.934H3.647V24.53h16.782V34.934z M20.429,38.159V48.74H3.647V38.159H20.429z M44.919,38.159
	H60.98V48.74H44.919V38.159z M44.919,34.934V24.53H60.98v10.404H44.919z M20.429,12.025v9.282H3.647v-9.282H20.429z M3.647,51.967
	h16.782v8.475H3.647V51.967z M44.919,60.441v-8.476H60.98v8.476H44.919z"/>
</svg>
