<?xml version="1.0" encoding="utf-8"?>
<!-- Generator: Adobe Illustrator 16.0.0, SVG Export Plug-In . SVG Version: 6.00 Build 0)  -->
<!DOCTYPE svg PUBLIC "-//W3C//DTD SVG 1.1//EN" "http://www.w3.org/Graphics/SVG/1.1/DTD/svg11.dtd">
<svg version="1.1" id="Layer_1" xmlns="http://www.w3.org/2000/svg" xmlns:xlink="http://www.w3.org/1999/xlink" x="0px" y="0px"
	 width="64px" height="64px" viewBox="0 0 64 64" enable-background="new 0 0 64 64" xml:space="preserve">
<g>
	<polygon fill="#0000FF" points="64.029,31.705 38.555,10.607 33.791,16.357 64.029,41.402 	"/>
</g>
<g>
	<polygon fill="#0000FF" points="64.029,49.316 29.313,20.566 24.547,26.316 64.029,59.012 	"/>
</g>
<g>
	<polygon fill="#0000FF" points="60.506,64.012 20.066,30.521 15.303,36.275 48.795,64.012 	"/>
</g>
<g>
	<path fill="#0000FF" d="M39.234,64.012L12.729,42.061c-0.127,0.25-0.27,0.496-0.434,0.738c-1.248,1.82-2.436,3.703-3.848,5.408
		l19.08,15.805H39.234z"/>
</g>
<g>
	<path fill="#FF0000" d="M47.719,2.336C32.531,4.299,23.09,21.146,21.938,23.309L0.049,56.139v7.818l0.078,0.055h3.65L28.26,27.289
		l0.209-0.365c2.236-4.34,10.215-15.889,20.205-17.184c4.961-0.641,10.096,1.264,15.313,5.654V6.182
		C58.639,2.92,53.197,1.627,47.719,2.336z"/>
</g>
</svg>
