<?xml version="1.0" encoding="utf-8"?>
<!-- Generator: Adobe Illustrator 16.0.0, SVG Export Plug-In . SVG Version: 6.00 Build 0)  -->
<!DOCTYPE svg PUBLIC "-//W3C//DTD SVG 1.1//EN" "http://www.w3.org/Graphics/SVG/1.1/DTD/svg11.dtd">
<svg version="1.1" id="Layer_1" xmlns="http://www.w3.org/2000/svg" xmlns:xlink="http://www.w3.org/1999/xlink" x="0px" y="0px"
	 width="64px" height="64px" viewBox="0 0 64 64" enable-background="new 0 0 64 64" xml:space="preserve">
<path fill="#1C8BDC" d="M32.05-0.008c-2.244,0-4.434,0.23-6.549,0.672l-0.004-0.006c0,0.002-0.002,0.006-0.004,0.006
	C10.964,3.688,0.042,16.563,0.042,31.994c0,17.676,14.328,32.004,32.008,32.004c17.675,0,32.002-14.328,32.002-32.004
	C64.052,14.316,49.725-0.008,32.05-0.008z M57.605,28.02c-2.762,1.406-5.719,2.465-8.766,3.242
	c-0.08-3.764-0.559-7.543-1.457-11.301c-1.063-4.439-2.549-8.234-3.963-11.197C50.866,12.414,56.3,19.535,57.605,28.02z
	 M33.376,6.164c0.312,0.422,4.567,6.334,6.771,15.529c0.881,3.676,1.307,7.324,1.291,10.936c-6.201,0.742-12.459,0.598-18.011,0.084
	c-0.047-3.715,0.355-7.479,1.219-11.285c1.691-7.461,4.744-12.99,6.143-15.268c0.422-0.021,0.836-0.031,1.262-0.031
	C32.493,6.129,32.938,6.139,33.376,6.164z M21.147,8.541c-1.324,2.957-2.693,6.646-3.684,10.92
	c-0.957,4.105-1.445,8.225-1.469,12.311c-4.369-0.693-7.809-1.494-9.713-1.977C7.079,20.354,12.942,12.357,21.147,8.541z
	 M6.796,37.584c2.428,0.561,5.768,1.236,9.705,1.811c0.77,5.535,2.428,10.951,4.939,16.188C14.093,52.271,8.569,45.631,6.796,37.584
	z M31.196,57.834c-3.586-5.674-5.938-11.547-7.041-17.578c2.799,0.221,5.537,0.34,8.186,0.34c2.904,0,5.705-0.141,8.4-0.406
	c-1.082,6.004-3.438,11.884-7.043,17.607c-0.55,0.035-1.097,0.061-1.648,0.061C31.759,57.857,31.478,57.846,31.196,57.834z
	 M43.65,55.105c2.406-5.111,3.996-10.367,4.73-15.715c0.02-0.127,0.027-0.259,0.047-0.392c3.256-0.699,6.307-1.633,9.135-2.795
	C56.206,44.498,50.909,51.455,43.65,55.105z"/>
</svg>
