<?xml version="1.0" encoding="utf-8"?>
<!-- Generator: Adobe Illustrator 16.0.0, SVG Export Plug-In . SVG Version: 6.00 Build 0)  -->
<!DOCTYPE svg PUBLIC "-//W3C//DTD SVG 1.1//EN" "http://www.w3.org/Graphics/SVG/1.1/DTD/svg11.dtd">
<svg version="1.1" id="Layer_1" xmlns="http://www.w3.org/2000/svg" xmlns:xlink="http://www.w3.org/1999/xlink" x="0px" y="0px"
	 width="64px" height="64px" viewBox="0 0 64 64" enable-background="new 0 0 64 64" xml:space="preserve">
<rect y="0.015" fill="#C3002D" width="4.666" height="11.73"/>
<rect y="16.017" fill="#C3002D" width="4.666" height="11.736"/>
<rect y="32.017" fill="#C3002D" width="4.666" height="11.734"/>
<rect y="48.02" fill="#C3002D" width="4.666" height="11.733"/>
<rect x="59.428" y="0.015" fill="#C3002D" width="4.668" height="11.73"/>
<rect x="59.428" y="16.017" fill="#C3002D" width="4.668" height="11.736"/>
<rect x="59.428" y="32.017" fill="#C3002D" width="4.668" height="11.734"/>
<rect x="42.537" y="-0.03" fill="#C3002D" width="11.734" height="4.666"/>
<rect x="26.535" y="-0.03" fill="#C3002D" width="11.736" height="4.666"/>
<rect x="10.533" y="-0.03" fill="#C3002D" width="11.734" height="4.666"/>
<rect x="26.535" y="59.334" fill="#C3002D" width="11.736" height="4.666"/>
<rect x="10.533" y="59.334" fill="#C3002D" width="11.734" height="4.666"/>
<polygon fill="#C3002D" points="64.096,48.02 60.605,48.02 64.096,51.509 "/>
<polygon fill="#C3002D" points="42.537,59.334 42.537,64 51.506,64 46.836,59.334 "/>
<path fill="#1BA8A2" d="M62.824,55.518l-0.492-0.488L48.049,40.745l-0.488-0.492c-0.086-0.088-0.18-0.166-0.271-0.246
	c1.58-2.756,2.485-5.95,2.485-9.359c0-10.416-8.44-18.861-18.854-18.861c-10.424,0-18.867,8.445-18.867,18.861
	c0,10.417,8.443,18.861,18.867,18.861c3.328,0,6.459-0.866,9.179-2.385c0.086,0.104,0.178,0.213,0.278,0.312l0.492,0.489
	l14.282,14.283l0.488,0.49c1.699,1.698,4.455,1.698,6.156,0l1.027-1.027C64.521,59.975,64.521,57.216,62.824,55.518z M30.92,44.723
	c-7.775,0-14.076-6.304-14.076-14.075c0-7.773,6.301-14.072,14.076-14.072c7.768,0,14.07,6.299,14.07,14.072
	C44.99,38.419,38.688,44.723,30.92,44.723z"/>
</svg>
