<?xml version="1.0" encoding="utf-8"?>
<!-- Generator: Adobe Illustrator 16.0.0, SVG Export Plug-In . SVG Version: 6.00 Build 0)  -->
<!DOCTYPE svg PUBLIC "-//W3C//DTD SVG 1.1//EN" "http://www.w3.org/Graphics/SVG/1.1/DTD/svg11.dtd">
<svg version="1.1" id="Layer_1" xmlns="http://www.w3.org/2000/svg" xmlns:xlink="http://www.w3.org/1999/xlink" x="0px" y="0px"
	 width="64px" height="64px" viewBox="0 0 64 64" enable-background="new 0 0 64 64" xml:space="preserve">
<rect x="12.637" y="4.914" fill="#3D3D3D" width="4.934" height="9.59"/>
<path fill="#1C8BDC" d="M50.779,12.582c-0.004-0.756-0.406-1.689-0.934-2.24c-3.066-3.188-6.199-6.309-9.384-9.383
	c-0.519-0.498-1.381-0.896-2.09-0.898C27.547,0.004,16.726,0.002,5.902,0.029c-3.638,0.01-5.838,2.283-5.844,5.912
	C0.05,12.4,0.056,18.861,0.056,25.322c0,6.402,0.147,12.807-0.053,19.204c-0.098,3.184,1.784,5.434,4.463,6.119h41.974
	c2.76-0.578,4.373-2.648,4.375-5.765C50.824,34.115,50.838,23.348,50.779,12.582z M10.24,3.361h26.934v12.977H10.24V3.361z
	 M40.846,46.24H7.84V23.674h33.006V46.24L40.846,46.24z"/>
<path fill="#1374A5" d="M63.963,32.594c-0.002-0.625-0.33-1.395-0.77-1.848c-2.426-2.52-4.904-4.988-7.412-7.42v25.75h-0.01v11.289
	H28.539v-4.914h-6.4c-0.014,1.168-0.031,2.332-0.065,3.5c-0.084,2.627,1.473,4.484,3.681,5.049h34.632
	c2.278-0.475,3.606-2.186,3.608-4.756C64,50.361,64.014,41.479,63.963,32.594z"/>
</svg>
