<?xml version="1.0" encoding="utf-8"?>
<!-- Generator: Adobe Illustrator 16.0.0, SVG Export Plug-In . SVG Version: 6.00 Build 0)  -->
<!DOCTYPE svg PUBLIC "-//W3C//DTD SVG 1.1//EN" "http://www.w3.org/Graphics/SVG/1.1/DTD/svg11.dtd">
<svg version="1.1" id="Layer_1" xmlns="http://www.w3.org/2000/svg" xmlns:xlink="http://www.w3.org/1999/xlink" x="0px" y="0px"
	 width="64px" height="64px" viewBox="0 0 64 64" enable-background="new 0 0 64 64" xml:space="preserve">
<path fill="#1BA8A2" d="M62.449,53.631l-0.6-0.602L44.344,35.527l-0.6-0.603c-0.107-0.104-0.217-0.202-0.332-0.301
	c1.938-3.381,3.051-7.295,3.051-11.471c0-12.77-10.348-23.115-23.113-23.115S0.234,10.385,0.234,23.154
	c0,12.766,10.35,23.114,23.115,23.114c4.086,0,7.92-1.064,11.25-2.922c0.106,0.129,0.223,0.256,0.348,0.381l0.596,0.6L53.049,61.83
	l0.598,0.604c2.088,2.082,5.463,2.082,7.547,0l1.257-1.262C64.531,59.092,64.531,55.717,62.449,53.631z M23.35,40.402
	c-9.523,0-17.246-7.728-17.246-17.249c0-9.523,7.723-17.25,17.246-17.25c9.525,0,17.246,7.727,17.246,17.25
	C40.596,32.676,32.875,40.402,23.35,40.402z"/>
<path fill="#701B6C" d="M19.17,22.088c0,2.748-2.23,4.977-4.977,4.977c-2.752,0-4.979-2.229-4.979-4.977
	c0-2.754,2.227-4.977,4.979-4.977C16.939,17.111,19.17,19.334,19.17,22.088z"/>
<path fill="#701B6C" d="M32.328,31.154c0,2.75-2.23,4.979-4.977,4.979c-2.754,0-4.979-2.229-4.979-4.979
	c0-2.75,2.225-4.979,4.979-4.979C30.098,26.176,32.328,28.404,32.328,31.154z"/>
<circle fill="#701B6C" cx="28.416" cy="15.686" r="4.979"/>
</svg>
