<?xml version="1.0" encoding="utf-8"?>
<!-- Generator: Adobe Illustrator 16.0.0, SVG Export Plug-In . SVG Version: 6.00 Build 0)  -->
<!DOCTYPE svg PUBLIC "-//W3C//DTD SVG 1.1//EN" "http://www.w3.org/Graphics/SVG/1.1/DTD/svg11.dtd">
<svg version="1.1" id="Layer_1" xmlns="http://www.w3.org/2000/svg" xmlns:xlink="http://www.w3.org/1999/xlink" x="0px" y="0px"
	 width="64px" height="64px" viewBox="0 0 64 64" enable-background="new 0 0 64 64" xml:space="preserve">
<path fill="#FFC612" d="M1.566,56.996c1.867-5.063,3.686-9.986,5.512-14.91c1.752-4.73,3.508-9.461,5.277-14.189
	c0.773-2.066,1.348-2.449,3.592-2.449c15.23-0.002,30.461-0.006,45.696-0.006c2.284,0,2.809,0.719,2.012,2.881
	c-3.197,8.635-6.422,17.264-9.605,25.901c-0.672,1.813-1.818,2.892-3.789,2.892c-16.008,0.006-32.016,0.004-48.023,0
	C2.084,57.115,1.934,57.066,1.566,56.996z"/>
<path fill="#FFC612" d="M56.201,18.494c-0.008-2.764-0.867-3.617-3.641-3.617c-8.082-0.002-16.162,0-24.241-0.006
	c-0.6,0-1.191-0.053-1.896-0.088c0-6.791-4.412-8.363-6.861-8.717c-4.004,0-8.006,0-12.012-0.002C6.09,6.303,0.33,7.834,0.33,17.225
	L0.244,17.03c0,10.783,0,21.566,0,32.352c0.078,0.009,0.162,0.017,0.242,0.022c0.191-0.477,0.387-0.946,0.563-1.43
	c2.814-7.779,5.635-15.555,8.447-23.332c0.887-2.451,1.34-2.791,3.99-2.791c12.533-0.008,25.071-0.006,37.607-0.008
	c1.683-0.002,3.363,0,5.109,0C56.203,20.574,56.205,19.533,56.201,18.494z"/>
</svg>
