<?xml version="1.0" encoding="utf-8"?>
<!-- Generator: Adobe Illustrator 16.0.0, SVG Export Plug-In . SVG Version: 6.00 Build 0)  -->
<!DOCTYPE svg PUBLIC "-//W3C//DTD SVG 1.1//EN" "http://www.w3.org/Graphics/SVG/1.1/DTD/svg11.dtd">
<svg version="1.1" id="Layer_1" xmlns="http://www.w3.org/2000/svg" xmlns:xlink="http://www.w3.org/1999/xlink" x="0px" y="0px"
	 width="64px" height="64px" viewBox="0 0 64 64" enable-background="new 0 0 64 64" xml:space="preserve">
<path fill="#3D3D3D" d="M15.864,6.161v12.094h1.004l3.986-3.988c0.371-0.373,0.787-0.689,1.232-0.967V6.161H15.864z"/>
<path fill="#1C8BDC" d="M44.884,62.611c-0.504-0.362-0.981-0.768-1.428-1.213l-3.14-3.139h-30.5V29.812h3.092
	c-1.385-3.135-1.027-6.568,1.229-8.826l0.42-0.418h-1.717V4.208h33.957v16.359h-8.534l9.243,9.244h3.916v3.916l9.853,9.854
	c1.283,1.287,2.225,2.844,2.725,4.461c0.008-10.735,0.008-21.475-0.053-32.211c-0.004-0.955-0.51-2.129-1.176-2.824
	c-3.869-4.016-7.816-7.953-11.826-11.824c-0.656-0.633-1.742-1.135-2.637-1.139C34.661-0.028,21.013-0.028,7.368,0.009
	c-4.584,0.01-7.357,2.875-7.365,7.453c-0.01,8.145-0.004,16.289,0,24.43c0,8.07,0.188,16.145-0.068,24.209
	c-0.125,4.014,2.256,6.852,5.627,7.711H46.65l-1.767-0.443V62.611z"/>
<g>
	<path fill="#D82F23" d="M32.868,21.21l-2.842-2.842c-1.996-1.998-4.756-2.482-6.152-1.084l-6.719,6.715
		c-1.398,1.398-0.912,4.156,1.088,6.156l2.857,2.857c0.043-0.068,0.088-0.137,0.145-0.193l11.571-11.575
		C32.835,21.233,32.854,21.224,32.868,21.21z"/>
	<polygon fill="#3D3D3D" points="61.646,56.059 55.911,61.79 63.727,63.809 	"/>
	<path fill="#FFC612" d="M42.945,54.854l3.527,3.529c0.814,0.814,1.756,1.373,2.68,1.66v0.004l0.076,0.02
		c0.107,0.031,0.211,0.058,0.318,0.08l4.354,1.125l7.211-7.211l-0.979-3.651c-0.071-1.252-0.723-2.658-1.873-3.813l-4.69-4.688
		L35.993,24.333c-0.015,0.016-0.021,0.035-0.035,0.047L24.382,35.954c-0.057,0.057-0.125,0.104-0.193,0.146l16.988,16.983
		L42.945,54.854z"/>
</g>
</svg>
