<?xml version="1.0" encoding="UTF-8" standalone="no"?>
<!-- Generator: Adobe Illustrator 16.0.0, SVG Export Plug-In . SVG Version: 6.00 Build 0)  -->

<svg
   xmlns:dc="http://purl.org/dc/elements/1.1/"
   xmlns:cc="http://creativecommons.org/ns#"
   xmlns:rdf="http://www.w3.org/1999/02/22-rdf-syntax-ns#"
   xmlns:svg="http://www.w3.org/2000/svg"
   xmlns="http://www.w3.org/2000/svg"
   xmlns:sodipodi="http://sodipodi.sourceforge.net/DTD/sodipodi-0.dtd"
   xmlns:inkscape="http://www.inkscape.org/namespaces/inkscape"
   version="1.1"
   id="Layer_1"
   x="0px"
   y="0px"
   width="64px"
   height="64px"
   viewBox="0 0 64 64"
   enable-background="new 0 0 64 64"
   xml:space="preserve"
   sodipodi:docname="MenuZoomXin.svg"
   inkscape:version="0.92.2 5c3e80d, 2017-08-06"
   inkscape:export-filename="/Users/IvanJohansen/Projects/Graph/Images/Actions/MenuZoomXin.png"
   inkscape:export-xdpi="96"
   inkscape:export-ydpi="96"><metadata
     id="metadata5803"><rdf:RDF><cc:Work
         rdf:about=""><dc:format>image/svg+xml</dc:format><dc:type
           rdf:resource="http://purl.org/dc/dcmitype/StillImage" /></cc:Work></rdf:RDF></metadata><defs
     id="defs5801" /><sodipodi:namedview
     pagecolor="#ffffff"
     bordercolor="#666666"
     borderopacity="1"
     objecttolerance="10"
     gridtolerance="10"
     guidetolerance="10"
     inkscape:pageopacity="0"
     inkscape:pageshadow="2"
     inkscape:window-width="1506"
     inkscape:window-height="1063"
     id="namedview5799"
     showgrid="false"
     inkscape:zoom="3.6875"
     inkscape:cx="-17.491525"
     inkscape:cy="32"
     inkscape:window-x="962"
     inkscape:window-y="117"
     inkscape:window-maximized="0"
     inkscape:current-layer="Layer_1" /><g
     id="g5794"><polygon
       fill="#1BA8A2"
       points="52.816,42.523 57.406,47.109 58.605,48.313  "
       id="polygon5790" /><path
       fill="#1BA8A2"
       d="M61.992,51.702l-4.586-4.593l-5.691-5.686c-0.129-0.131-0.26-0.248-0.395-0.361   c2.301-4.014,3.619-8.655,3.619-13.612c0-15.152-12.283-27.436-27.434-27.436C12.354,0.014,0.07,12.297,0.07,27.45   c0,15.149,12.283,27.432,27.436,27.432c4.852,0,9.4-1.26,13.352-3.467c0.129,0.155,0.264,0.308,0.408,0.453l0.715,0.713   l0.479,0.479l9.088,9.088c2.475,2.47,6.482,2.47,8.953-0.006l1.492-1.492C64.465,58.18,64.465,54.173,61.992,51.702z    M27.506,49.521c-12.191,0-22.068-9.886-22.068-22.07c0-12.191,9.877-22.072,22.068-22.072c12.186,0,22.07,9.881,22.07,22.072   C49.576,39.636,39.691,49.521,27.506,49.521z"
       id="path5792" /></g><polygon
     points="27.084,27.083 14.848,17.497 14.848,22.499 9.778,22.499 9.778,32.872 14.848,32.872 14.848,37.725 27.084,27.253 39.316,37.725 39.316,32.872 45.512,32.872 45.512,22.499 39.316,22.499 39.316,17.497 "
     id="polygon5796"
     style="fill:#85d435;fill-opacity:1;stroke:#00aa00;stroke-width:2.11851193;stroke-miterlimit:4;stroke-dasharray:none;stroke-opacity:1"
     transform="matrix(0.94405888,0,0,0.94405888,1.5464922,1.5445902)" /></svg>