<?xml version="1.0" encoding="utf-8"?>
<!-- Generator: Adobe Illustrator 16.0.0, SVG Export Plug-In . SVG Version: 6.00 Build 0)  -->
<!DOCTYPE svg PUBLIC "-//W3C//DTD SVG 1.1//EN" "http://www.w3.org/Graphics/SVG/1.1/DTD/svg11.dtd">
<svg version="1.1" id="Layer_1" xmlns="http://www.w3.org/2000/svg" xmlns:xlink="http://www.w3.org/1999/xlink" x="0px" y="0px"
	 width="64px" height="64px" viewBox="0 0 64 64" enable-background="new 0 0 64 64" xml:space="preserve">
<path fill="#8B2A82" d="M7.957,0.022V64.02H56.67V0.022H7.957z M18,58.047c-1.912,0-3.465-1.558-3.465-3.475
	c0-1.924,1.553-3.479,3.465-3.479c1.914,0,3.469,1.555,3.469,3.479C21.469,56.489,19.914,58.047,18,58.047z M18,43.873
	c-1.912,0-3.465-1.555-3.465-3.475s1.553-3.476,3.465-3.476c1.914,0,3.469,1.556,3.469,3.476S19.914,43.873,18,43.873z M18,29.703
	c-1.912,0-3.465-1.557-3.465-3.477c0-1.918,1.553-3.476,3.465-3.476c1.914,0,3.469,1.557,3.469,3.476
	C21.469,28.146,19.914,29.703,18,29.703z M18,15.531c-1.912,0-3.465-1.558-3.465-3.478c0-1.919,1.553-3.475,3.465-3.475
	c1.914,0,3.469,1.555,3.469,3.475C21.469,13.974,19.914,15.531,18,15.531z M50.406,57.111H25.201v-5.747h25.205V57.111z
	 M50.406,42.938H25.201v-5.75h25.205V42.938z M50.406,28.766H25.201v-5.747h25.205V28.766z M50.406,14.596H25.201v-5.75h25.205
	V14.596z"/>
</svg>
