<?xml version="1.0" encoding="utf-8"?>
<!-- Generator: Adobe Illustrator 16.0.0, SVG Export Plug-In . SVG Version: 6.00 Build 0)  -->
<!DOCTYPE svg PUBLIC "-//W3C//DTD SVG 1.1//EN" "http://www.w3.org/Graphics/SVG/1.1/DTD/svg11.dtd">
<svg version="1.1" id="Layer_1" xmlns="http://www.w3.org/2000/svg" xmlns:xlink="http://www.w3.org/1999/xlink" x="0px" y="0px"
	 width="64px" height="64px" viewBox="0 0 64 64" enable-background="new 0 0 64 64" xml:space="preserve">
<g>
	<path fill="#231F20" d="M26.976,23.04l-3.633,14.345c-1.699,6.771-3.354,11.676-4.969,14.719c-1.617,3.043-3.506,5.293-5.666,6.756
		c-2.166,1.457-4.645,2.188-7.438,2.188c-1.762,0-3.055-0.336-3.885-1.009c-0.826-0.673-1.24-1.462-1.24-2.373
		c0-0.851,0.342-1.585,1.023-2.207c0.684-0.62,1.582-0.931,2.701-0.931c0.934,0,1.65,0.238,2.141,0.714
		c0.5,0.475,0.748,1.077,0.748,1.8c0,0.665-0.154,1.154-0.465,1.477c-0.311,0.319-0.467,0.533-0.467,0.637l0.156,0.22
		c0.123,0.103,0.268,0.151,0.436,0.151c0.619,0,1.146-0.192,1.58-0.592c1.1-0.972,1.918-2.148,2.453-3.537
		c0.375-0.951,1.092-3.467,2.143-7.545l6.336-24.811h-4.314l1.021-3.634c1.553,0.021,2.684-0.176,3.387-0.589
		c0.703-0.415,1.451-1.347,2.234-2.797c2.279-4.202,4.678-7.213,7.207-9.035c2.523-1.82,5.338-2.733,8.443-2.733
		c1.99,0,3.434,0.386,4.33,1.15c0.9,0.767,1.354,1.759,1.354,2.982c0,1.077-0.303,1.929-0.9,2.561
		c-0.6,0.632-1.346,0.948-2.235,0.948c-0.828,0-1.515-0.259-2.049-0.776c-0.541-0.517-0.81-1.138-0.81-1.862
		c0-0.518,0.172-1.069,0.514-1.647c0.341-0.58,0.509-0.975,0.509-1.181c0-0.228-0.076-0.413-0.229-0.558
		c-0.154-0.144-0.355-0.217-0.605-0.217c-1.221,0-2.475,0.757-3.758,2.268c-2.111,2.422-3.812,6.252-5.092,11.488h4.502l-1.09,3.634
		h-4.371V23.04z"/>
	<path fill="#231F20" d="M34.396,20.401l10.836-1.865c1.967,3.086,3.354,6.478,4.164,10.184c2.026-2.999,3.559-5.1,4.598-6.302
		c1.387-1.613,2.525-2.664,3.426-3.152c0.904-0.485,1.859-0.729,2.875-0.729c1.139,0,2.016,0.311,2.627,0.933
		c0.604,0.62,0.914,1.459,0.914,2.515c0,0.994-0.311,1.807-0.914,2.439c-0.609,0.63-1.371,0.946-2.285,0.946
		c-0.662,0-1.424-0.118-2.279-0.356c-0.86-0.237-1.453-0.357-1.789-0.357c-0.866,0-1.694,0.312-2.481,0.93
		c-1.078,0.852-2.401,2.662-3.978,5.435c1.759,6.208,3.168,10,4.222,11.365c0.625,0.811,1.258,1.213,1.897,1.213
		c0.539,0,1.004-0.134,1.396-0.402c0.598-0.437,1.521-1.522,2.76-3.264l1.123,0.652c-1.824,2.939-3.604,5.012-5.344,6.207
		c-1.322,0.938-2.631,1.4-3.912,1.4c-1.322,0-2.428-0.297-3.305-0.883c-0.883-0.592-1.662-1.553-2.346-2.892
		c-0.687-1.335-1.49-3.47-2.422-6.41c-2.425,3.085-4.32,5.335-5.699,6.751c-1.377,1.42-2.521,2.348-3.433,2.781
		c-0.907,0.434-1.883,0.652-2.918,0.652c-1.076,0-1.93-0.312-2.563-0.932c-0.629-0.623-0.949-1.431-0.949-2.424
		c0-1.056,0.344-1.923,1.029-2.607c0.68-0.683,1.551-1.024,2.607-1.024c0.559,0,1.189,0.167,1.893,0.494
		c1.035,0.5,1.779,0.75,2.236,0.75c0.598,0,1.137-0.127,1.613-0.376c0.621-0.311,1.406-0.98,2.363-2.016
		c0.576-0.644,1.643-2.012,3.197-4.103c-1.988-7.369-3.543-11.778-4.656-13.226c-0.705-0.932-1.594-1.398-2.678-1.398
		c-0.554,0-1.238,0.084-2.048,0.248L34.396,20.401z"/>
</g>
</svg>
