<?xml version="1.0" encoding="utf-8"?>
<!-- Generator: Adobe Illustrator 16.0.0, SVG Export Plug-In . SVG Version: 6.00 Build 0)  -->
<!DOCTYPE svg PUBLIC "-//W3C//DTD SVG 1.1//EN" "http://www.w3.org/Graphics/SVG/1.1/DTD/svg11.dtd">
<svg version="1.1" id="Layer_1" xmlns="http://www.w3.org/2000/svg" xmlns:xlink="http://www.w3.org/1999/xlink" x="0px" y="0px"
	 width="64px" height="64px" viewBox="0 0 64 64" enable-background="new 0 0 64 64" xml:space="preserve">
<path fill="#FF2559" d="M13.782,6.383c5.73-3.736,12.041-5.477,18.858-4.967C41.637,2.09,48.98,6.092,54.68,13.055
	c2.906-1.666,6.426-3.258,9.319-4.916c0,9.689,0,19.146,0,28.826c-8.396-4.842-17.331-9.57-25.704-14.396
	c2.807-1.639,5.375-3.139,7.957-4.645c-5.264-6.637-15.463-9.002-23.66-5.59C13.696,16.039,8.354,25.162,9.59,34.594
	c1.023,7.793,6.684,15.686,16.492,17.979c1.322,0.575,3.111,1.93,2.535,4.934c0,0-1.781,5.688-9.424,2.757
	c0,0,0.006,0.01,0.008,0.012c-8.345-3.414-15.145-10.6-17.889-19.639C-2.567,27.861,2.577,13.691,13.782,6.383z"/>
</svg>
