<?xml version="1.0" encoding="utf-8"?>
<!-- Generator: Adobe Illustrator 16.0.0, SVG Export Plug-In . SVG Version: 6.00 Build 0)  -->
<!DOCTYPE svg PUBLIC "-//W3C//DTD SVG 1.1//EN" "http://www.w3.org/Graphics/SVG/1.1/DTD/svg11.dtd">
<svg version="1.1" id="Layer_1" xmlns="http://www.w3.org/2000/svg" xmlns:xlink="http://www.w3.org/1999/xlink" x="0px" y="0px"
	 width="64px" height="64px" viewBox="0 0 64 64" enable-background="new 0 0 64 64" xml:space="preserve">
<path fill="#1BA8A2" d="M62.439,53.631l-0.601-0.602L44.336,35.527l-0.602-0.603c-0.105-0.104-0.219-0.202-0.334-0.301
	c1.938-3.381,3.051-7.295,3.051-11.471c0-12.77-10.348-23.115-23.113-23.115c-12.765,0-23.113,10.347-23.113,23.116
	c0,12.766,10.348,23.114,23.113,23.114c4.086,0,7.918-1.064,11.252-2.922c0.105,0.129,0.221,0.256,0.344,0.381l0.601,0.6
	L53.035,61.83l0.602,0.604c2.084,2.082,5.459,2.082,7.549,0l1.254-1.262C64.52,59.092,64.52,55.717,62.439,53.631z M23.338,40.402
	c-9.525,0-17.248-7.728-17.248-17.249c0-9.523,7.723-17.25,17.248-17.25c9.525,0,17.248,7.727,17.248,17.25
	C40.586,32.676,32.863,40.402,23.338,40.402z"/>
<rect x="14.4" y="14.086" fill="#0F6933" width="18.491" height="18.49"/>
</svg>
