<?xml version="1.0" encoding="UTF-8" standalone="no"?>
<!-- Generator: Adobe Illustrator 16.0.0, SVG Export Plug-In . SVG Version: 6.00 Build 0)  -->

<svg
   xmlns:dc="http://purl.org/dc/elements/1.1/"
   xmlns:cc="http://creativecommons.org/ns#"
   xmlns:rdf="http://www.w3.org/1999/02/22-rdf-syntax-ns#"
   xmlns:svg="http://www.w3.org/2000/svg"
   xmlns="http://www.w3.org/2000/svg"
   xmlns:sodipodi="http://sodipodi.sourceforge.net/DTD/sodipodi-0.dtd"
   xmlns:inkscape="http://www.inkscape.org/namespaces/inkscape"
   version="1.1"
   id="Layer_1"
   x="0px"
   y="0px"
   width="64px"
   height="64px"
   viewBox="0 0 64 64"
   enable-background="new 0 0 64 64"
   xml:space="preserve"
   sodipodi:docname="MenuZoomXOut.svg"
   inkscape:version="0.92.2 5c3e80d, 2017-08-06"
   inkscape:export-filename="/Users/IvanJohansen/Projects/Graph/Images/Actions/MenuZoomXOut.png"
   inkscape:export-xdpi="96"
   inkscape:export-ydpi="96"><metadata
     id="metadata5202"><rdf:RDF><cc:Work
         rdf:about=""><dc:format>image/svg+xml</dc:format><dc:type
           rdf:resource="http://purl.org/dc/dcmitype/StillImage" /></cc:Work></rdf:RDF></metadata><defs
     id="defs5200" /><sodipodi:namedview
     pagecolor="#ffffff"
     bordercolor="#666666"
     borderopacity="1"
     objecttolerance="10"
     gridtolerance="10"
     guidetolerance="10"
     inkscape:pageopacity="0"
     inkscape:pageshadow="2"
     inkscape:window-width="1246"
     inkscape:window-height="981"
     id="namedview5198"
     showgrid="false"
     inkscape:zoom="3.6875"
     inkscape:cx="31.050847"
     inkscape:cy="32"
     inkscape:window-x="123"
     inkscape:window-y="48"
     inkscape:window-maximized="0"
     inkscape:current-layer="Layer_1" /><g
     id="g5187"><polygon
       fill="#1BA8A2"
       points="52.816,42.523 57.406,47.109 58.605,48.313  "
       id="polygon5183" /><path
       fill="#1BA8A2"
       d="M61.992,51.702l-4.586-4.593l-5.691-5.687c-0.129-0.131-0.26-0.248-0.395-0.36   c2.301-4.015,3.619-8.655,3.619-13.612c0-15.152-12.283-27.436-27.435-27.436C12.354,0.014,0.07,12.297,0.07,27.45   c0,15.149,12.283,27.432,27.436,27.432c4.852,0,9.4-1.26,13.352-3.467c0.129,0.155,0.265,0.308,0.408,0.453l0.715,0.713   l0.479,0.479l9.088,9.088c2.476,2.47,6.481,2.47,8.953-0.006l1.492-1.492C64.465,58.18,64.465,54.173,61.992,51.702z    M27.506,49.521c-12.191,0-22.068-9.887-22.068-22.07c0-12.191,9.877-22.072,22.068-22.072c12.186,0,22.07,9.881,22.07,22.072   C49.576,39.636,39.691,49.521,27.506,49.521z"
       id="path5185" /></g><rect
     style="fill:#c4002e;fill-opacity:1;stroke-width:1.05638313"
     id="rect5189"
     height="9.9519997"
     width="20.802999"
     y="22.068882"
     x="17.402" /><polygon
     style="fill:#c4002e;fill-opacity:1"
     id="polygon5191"
     points="19.6,18.431 19.6,35.833 8.986,27.513 "
     transform="matrix(1,0,0,1.3402482,0,-9.2316154)" /><polygon
     style="fill:#c4002e;fill-opacity:1"
     id="polygon5193"
     points="36.74,35.833 36.74,18.431 47.352,26.749 "
     transform="matrix(1,0,0,1.3402482,0,-9.2316154)" /></svg>