<?xml version="1.0" encoding="utf-8"?>
<!-- Generator: Adobe Illustrator 16.0.0, SVG Export Plug-In . SVG Version: 6.00 Build 0)  -->
<!DOCTYPE svg PUBLIC "-//W3C//DTD SVG 1.1//EN" "http://www.w3.org/Graphics/SVG/1.1/DTD/svg11.dtd">
<svg version="1.1" id="Layer_1" xmlns="http://www.w3.org/2000/svg" xmlns:xlink="http://www.w3.org/1999/xlink" x="0px" y="0px"
	 width="64px" height="64px" viewBox="0 0 64 64" enable-background="new 0 0 64 64" xml:space="preserve">
<polygon fill="#0000FF" points="5,8.098 5,63.979 8.992,63.979 8.992,8.098 5.268,8.098 "/>
<polygon fill="#0000FF" points="0.052,8.098 5,8.098 5,2.477 "/>
<polygon fill="#0000FF" points="7.263,0.055 7.13,0.055 7.121,0.07 7.275,0.07 "/>
<polygon fill="#0000FF" points="14.497,8.098 9.334,2.361 8.992,1.98 8.992,8.098 9.334,8.098 "/>
<polygon fill="#0000FF" points="7.275,0.07 7.121,0.07 5.268,2.174 5,2.477 5,8.098 5.268,8.098 8.992,8.098 8.992,1.98 "/>
<polygon fill="#0000FF" points="56.293,54.477 0.054,54.477 0.054,58.566 56.293,58.566 56.293,54.732 "/>
<polygon fill="#0000FF" points="63.75,56.35 61.916,54.732 61.623,54.477 55.992,49.516 55.992,54.477 55.992,54.732 55.992,58.566 
	55.992,58.801 55.992,63.963 61.729,58.801 61.992,58.566 63.75,56.986 64.031,56.729 64.031,56.598 "/>
<circle fill="#FF0000" cx="58.313" cy="5.832" r="5.778"/>
<path fill="#FF0000" d="M55.203,25.389c0,3.191-2.586,5.783-5.779,5.783c-3.191,0-5.777-2.592-5.777-5.783
	c0-3.189,2.586-5.777,5.777-5.777C52.617,19.611,55.203,22.199,55.203,25.389z"/>
<circle fill="#FF0000" cx="33.602" cy="33.924" r="5.779"/>
<path fill="#FF0000" d="M23.553,46.014c0,3.189-2.585,5.779-5.778,5.779c-3.192,0-5.775-2.59-5.775-5.779
	c0-3.188,2.583-5.779,5.775-5.779C20.968,40.234,23.553,42.824,23.553,46.014z"/>
</svg>
