<?xml version="1.0" encoding="utf-8"?>
<!-- Generator: Adobe Illustrator 16.0.0, SVG Export Plug-In . SVG Version: 6.00 Build 0)  -->
<!DOCTYPE svg PUBLIC "-//W3C//DTD SVG 1.1//EN" "http://www.w3.org/Graphics/SVG/1.1/DTD/svg11.dtd">
<svg version="1.1" id="Layer_1" xmlns="http://www.w3.org/2000/svg" xmlns:xlink="http://www.w3.org/1999/xlink" x="0px" y="0px"
	 width="64px" height="64px" viewBox="0 0 64 64" enable-background="new 0 0 64 64" xml:space="preserve">
<path fill="#FF2559" d="M50.111,6.939C44.325,3.199,37.95,1.461,31.07,1.975c-9.085,0.67-16.503,4.673-22.26,11.634
	C5.876,11.945,2.923,10.355,0,8.695c0,9.688,0,19.143,0,28.829c8.481-4.847,16.902-9.568,25.358-14.398
	c-2.836-1.639-5.428-3.141-8.033-4.646c5.313-6.637,15.614-9,23.891-5.586c8.984,3.701,14.38,12.824,13.13,22.259
	c-1.031,7.791-6.75,15.685-16.654,17.974c-1.336,0.582-3.145,1.933-2.562,4.938c0,0,1.797,5.688,9.517,2.754
	c0,0-0.004,0.01-0.006,0.014c8.426-3.408,15.295-10.594,18.065-19.635C66.623,28.414,61.427,14.244,50.111,6.939z"/>
</svg>
