<?xml version="1.0" encoding="utf-8"?>
<!-- Generator: Adobe Illustrator 16.0.0, SVG Export Plug-In . SVG Version: 6.00 Build 0)  -->
<!DOCTYPE svg PUBLIC "-//W3C//DTD SVG 1.1//EN" "http://www.w3.org/Graphics/SVG/1.1/DTD/svg11.dtd">
<svg version="1.1" id="Layer_1" xmlns="http://www.w3.org/2000/svg" xmlns:xlink="http://www.w3.org/1999/xlink" x="0px" y="0px"
	 width="64px" height="64px" viewBox="0 0 64 64" enable-background="new 0 0 64 64" xml:space="preserve">
<path fill="#1C8BDC" d="M32.044,0.158c-17.674,0-32.003,14.326-32.003,32.003c0,17.675,14.329,32.002,32.003,32.002
	c17.677,0,32.004-14.327,32.004-32.002C64.048,14.484,49.721,0.158,32.044,0.158z M32.204,8.9c3.108,0.014,5.573,2.542,5.526,5.677
	c-0.043,2.951-2.539,5.397-5.521,5.413c-3.014,0.016-5.596-2.499-5.619-5.48C26.569,11.426,29.108,8.884,32.204,8.9z M42.568,53.229
	c-6.527,0-13.039,0-19.625,0c0-2.276,0-4.506,0-6.896c1.451,0,2.924,0,4.502,0c0-5.551,0-10.946,0-16.565c-1.531,0-2.968,0-4.574,0
	c0-1.268,0-2.423,0-3.577c0-1.118,0-2.229,0-3.429c4.958,0,9.802,0,14.82,0c0,7.784,0,15.564,0,23.462c1.701,0,3.229,0,4.877,0
	C42.568,48.59,42.568,50.854,42.568,53.229z"/>
</svg>
