<?xml version="1.0" encoding="utf-8"?>
<!-- Generator: Adobe Illustrator 16.0.0, SVG Export Plug-In . SVG Version: 6.00 Build 0)  -->
<!DOCTYPE svg PUBLIC "-//W3C//DTD SVG 1.1//EN" "http://www.w3.org/Graphics/SVG/1.1/DTD/svg11.dtd">
<svg version="1.1" id="Layer_1" xmlns="http://www.w3.org/2000/svg" xmlns:xlink="http://www.w3.org/1999/xlink" x="0px" y="0px"
	 width="64px" height="64px" viewBox="0 0 64 64" enable-background="new 0 0 64 64" xml:space="preserve">
<path fill="#3D3D3D" d="M0.125,8.748v27.736H64V8.748H0.125z M60.396,32.085H3.859V12.75h56.538V32.085L60.396,32.085z"/>
<polygon fill="#FFC612" points="16.437,46.006 45.596,46.006 31.016,64.123 "/>
<g>
	<path fill="#3D3D3D" d="M17.605,15.517h2.1l5.875,13.636h-2.771l-1.273-3.12H15.62l-1.23,3.12h-2.715L17.605,15.517z
		 M20.683,23.953l-2.098-5.545l-2.137,5.545H20.683z"/>
	<path fill="#3D3D3D" d="M27.099,15.517h5.315c0.514,0,1.021,0.062,1.521,0.183c0.502,0.122,0.946,0.321,1.338,0.597
		c0.393,0.277,0.709,0.634,0.955,1.071c0.244,0.436,0.364,0.96,0.364,1.578c0,0.768-0.219,1.405-0.657,1.905
		c-0.437,0.501-1.004,0.859-1.711,1.08v0.037c0.426,0.053,0.817,0.173,1.184,0.354c0.367,0.191,0.678,0.428,0.936,0.718
		c0.256,0.287,0.455,0.621,0.605,1c0.146,0.38,0.221,0.786,0.221,1.221c0,0.747-0.146,1.365-0.441,1.86s-0.686,0.893-1.166,1.193
		c-0.481,0.302-1.033,0.516-1.658,0.646c-0.618,0.128-1.252,0.192-1.892,0.192h-4.913V15.517z M29.525,21.064h2.215
		c0.811,0,1.416-0.157,1.82-0.47c0.401-0.317,0.608-0.732,0.608-1.244c0-0.591-0.213-1.03-0.629-1.316
		c-0.418-0.293-1.088-0.436-2.012-0.436h-2.004L29.525,21.064L29.525,21.064z M29.525,27.073h2.235c0.307,0,0.637-0.02,0.99-0.059
		c0.354-0.037,0.68-0.128,0.971-0.268c0.297-0.143,0.545-0.345,0.736-0.606c0.193-0.265,0.287-0.622,0.287-1.069
		c0-0.731-0.23-1.236-0.693-1.512c-0.461-0.279-1.195-0.413-2.195-0.413h-2.331V27.073z"/>
	<path fill="#3D3D3D" d="M48.936,18.715c-0.498-0.541-0.981-0.898-1.453-1.081c-0.467-0.177-0.938-0.267-1.414-0.267
		c-0.705,0-1.346,0.127-1.916,0.373c-0.571,0.252-1.063,0.599-1.475,1.042c-0.408,0.44-0.729,0.958-0.949,1.549
		c-0.229,0.591-0.342,1.227-0.342,1.906c0,0.729,0.113,1.408,0.342,2.021c0.222,0.617,0.541,1.151,0.949,1.601
		c0.41,0.449,0.902,0.803,1.475,1.06c0.57,0.256,1.211,0.384,1.916,0.384c0.554,0,1.091-0.132,1.609-0.394
		c0.521-0.263,1.006-0.683,1.453-1.261l2,1.424c-0.617,0.848-1.365,1.464-2.252,1.849c-0.885,0.385-1.826,0.579-2.83,0.579
		c-1.053,0-2.018-0.171-2.898-0.51c-0.879-0.343-1.637-0.823-2.27-1.443c-0.637-0.626-1.137-1.37-1.492-2.246
		c-0.365-0.872-0.541-1.842-0.541-2.909c0-1.089,0.176-2.084,0.541-2.974c0.355-0.893,0.855-1.654,1.492-2.282
		c0.633-0.629,1.391-1.115,2.27-1.453c0.882-0.341,1.847-0.515,2.898-0.515c0.924,0,1.779,0.168,2.564,0.495
		c0.781,0.328,1.52,0.881,2.211,1.663L48.936,18.715z"/>
</g>
</svg>
