<?xml version="1.0" encoding="utf-8"?>
<!-- Generator: Adobe Illustrator 16.0.0, SVG Export Plug-In . SVG Version: 6.00 Build 0)  -->
<!DOCTYPE svg PUBLIC "-//W3C//DTD SVG 1.1//EN" "http://www.w3.org/Graphics/SVG/1.1/DTD/svg11.dtd">
<svg version="1.1" id="Layer_1" xmlns="http://www.w3.org/2000/svg" xmlns:xlink="http://www.w3.org/1999/xlink" x="0px" y="0px"
	 width="64px" height="64px" viewBox="0 0 64 64" enable-background="new 0 0 64 64" xml:space="preserve">
<path fill="#3D3D3D" d="M57.486,32.873l6.555-1.166l-1.826-10.475l-6.553,1.17c-0.908-2.268-2.121-4.379-3.594-6.279l4.281-5.162
	l-8.054-6.84l-4.278,5.158C41.925,8.148,39.66,7.3,37.275,6.793V0.061H26.764v6.732c-2.387,0.508-4.648,1.355-6.74,2.486
	l-4.279-5.158l-8.057,6.84l4.285,5.162c-1.473,1.9-2.689,4.012-3.594,6.279l-6.555-1.17L0,31.707l6.555,1.166
	c0.082,2.492,0.51,4.893,1.24,7.158l-5.758,3.363l5.252,9.209l5.777-3.369c1.6,1.801,3.449,3.373,5.488,4.666l-2.277,6.332
	l9.879,3.639l2.275-6.326c1.174,0.17,2.373,0.258,3.588,0.258c1.221,0,2.417-0.088,3.588-0.258l2.276,6.326l9.88-3.639L45.482,53.9
	c2.043-1.293,3.891-2.865,5.492-4.668l5.772,3.371l5.256-9.209l-5.762-3.365C56.977,37.766,57.406,35.365,57.486,32.873z
	 M32.02,53.762c-11.85,0-21.49-9.756-21.49-21.74c0-11.988,9.641-21.744,21.49-21.744s21.49,9.756,21.49,21.744
	C53.51,44.006,43.869,53.762,32.02,53.762z"/>
<path fill="#1C8BDC" d="M46.971,22.107c0,1.816-1.473,3.287-3.289,3.287H20.391c-1.816,0-3.289-1.471-3.289-3.287l0,0
	c0-1.82,1.473-3.291,3.289-3.291h23.291C45.498,18.816,46.971,20.287,46.971,22.107L46.971,22.107z"/>
<path fill="#1C8BDC" d="M46.971,32.598c0,1.813-1.473,3.287-3.289,3.287H20.391c-1.816,0-3.289-1.475-3.289-3.287l0,0
	c0-1.818,1.473-3.289,3.289-3.289h23.291C45.498,29.309,46.971,30.779,46.971,32.598L46.971,32.598z"/>
<path fill="#1C8BDC" d="M46.971,42.553c0,1.816-1.473,3.293-3.289,3.293H20.391c-1.816,0-3.289-1.477-3.289-3.293l0,0
	c0-1.816,1.473-3.289,3.289-3.289h23.291C45.498,39.264,46.971,40.736,46.971,42.553L46.971,42.553z"/>
</svg>
