<?xml version="1.0" encoding="UTF-8" standalone="no"?>
<!-- Generator: Adobe Illustrator 16.0.0, SVG Export Plug-In . SVG Version: 6.00 Build 0)  -->

<svg
   xmlns:dc="http://purl.org/dc/elements/1.1/"
   xmlns:cc="http://creativecommons.org/ns#"
   xmlns:rdf="http://www.w3.org/1999/02/22-rdf-syntax-ns#"
   xmlns:svg="http://www.w3.org/2000/svg"
   xmlns="http://www.w3.org/2000/svg"
   xmlns:sodipodi="http://sodipodi.sourceforge.net/DTD/sodipodi-0.dtd"
   xmlns:inkscape="http://www.inkscape.org/namespaces/inkscape"
   version="1.1"
   id="Layer_1"
   x="0px"
   y="0px"
   width="64px"
   height="64px"
   viewBox="0 0 64 64"
   enable-background="new 0 0 64 64"
   xml:space="preserve"
   sodipodi:docname="MenuInsertRelation.svg"
   inkscape:version="0.92.2 5c3e80d, 2017-08-06"><metadata
     id="metadata23"><rdf:RDF><cc:Work
         rdf:about=""><dc:format>image/svg+xml</dc:format><dc:type
           rdf:resource="http://purl.org/dc/dcmitype/StillImage" /></cc:Work></rdf:RDF></metadata><defs
     id="defs21" /><sodipodi:namedview
     pagecolor="#ffffff"
     bordercolor="#666666"
     borderopacity="1"
     objecttolerance="10"
     gridtolerance="10"
     guidetolerance="10"
     inkscape:pageopacity="0"
     inkscape:pageshadow="2"
     inkscape:window-width="1468"
     inkscape:window-height="975"
     id="namedview19"
     showgrid="false"
     inkscape:zoom="3.6875"
     inkscape:cx="32"
     inkscape:cy="32"
     inkscape:window-x="0"
     inkscape:window-y="0"
     inkscape:window-maximized="0"
     inkscape:current-layer="Layer_1" /><g
     id="g12"
     transform="matrix(0.98425197,0,0,1,0.42027559,0)"><path
       d="M 62.65,33.363 C 62.209,32.299 61.566,30.988 61.314,29.66 61.295,29.564 61.287,29.467 61.273,29.371 L 43.756,11.854 c -2.375,0.014 -4.754,0.043 -7.129,0.098 l 25.346,25.35 c 0.302,-1.304 0.541,-2.614 0.677,-3.939 z"
       id="path2"
       inkscape:connector-curvature="0"
       style="fill:#ff0000" /><path
       d="m 57.459,43.51 c 0.777,-0.576 1.67,-1.219 2.408,-1.965 L 30.488,12.162 c -2.277,0.105 -4.549,0.236 -6.822,0.41 l 32.139,32.139 c 0.558,-0.393 1.111,-0.793 1.654,-1.201 z"
       id="path4"
       inkscape:connector-curvature="0"
       style="fill:#ff0000" /><path
       d="M 51.961,47.215 18.373,13.625 c -1.916,0.365 -3.805,0.904 -5.652,1.578 L 47.018,49.5 c 1.734,-0.582 3.369,-1.373 4.943,-2.285 z"
       id="path6"
       inkscape:connector-curvature="0"
       style="fill:#ff0000" /><path
       d="M 41.863,50.695 8.634,17.471 c -1.221,1.268 -2.42,2.633 -2.93,4.297 l 29.403,29.398 c 2.272,-0.016 4.536,-0.143 6.756,-0.471 z"
       id="path8"
       inkscape:connector-curvature="0"
       style="fill:#ff0000" /><path
       d="m 22.347,50.859 c 2.061,0.008 4.16,0.094 6.273,0.174 L 3.24,25.65 c -0.08,2.238 -0.307,4.457 -0.551,6.68 l 18.623,18.623 c 0.328,-0.06 0.668,-0.094 1.035,-0.094 z"
       id="path10"
       inkscape:connector-curvature="0"
       style="fill:#ff0000" /></g><g
     id="g16"
     transform="matrix(0.98425197,0,0,1,0.42027559,0)"><path
       d="M 32.083,53.578 C 14.437,53.578 0.081,43.525 0.081,31.176 0.081,18.821 14.436,8.772 32.083,8.772 49.73,8.772 64.089,18.821 64.089,31.176 64.09,43.525 49.73,53.578 32.083,53.578 Z m 0,-40.539 c -15.295,0 -27.736,8.135 -27.736,18.137 0,9.998 12.441,18.135 27.736,18.135 15.295,0 27.735,-8.137 27.735,-18.135 0,-10.002 -12.439,-18.137 -27.735,-18.137 z"
       id="path14"
       inkscape:connector-curvature="0" /></g></svg>