<?xml version="1.0" encoding="utf-8"?>
<!-- Generator: Adobe Illustrator 16.0.0, SVG Export Plug-In . SVG Version: 6.00 Build 0)  -->
<!DOCTYPE svg PUBLIC "-//W3C//DTD SVG 1.1//EN" "http://www.w3.org/Graphics/SVG/1.1/DTD/svg11.dtd">
<svg version="1.1" id="Layer_1" xmlns="http://www.w3.org/2000/svg" xmlns:xlink="http://www.w3.org/1999/xlink" x="0px" y="0px"
	 width="64px" height="64px" viewBox="0 0 64 64" enable-background="new 0 0 64 64" xml:space="preserve">
<path fill="#FF0000" d="M0.031,34.993c0,0,4.109,24.212,22.959,24.212c0,0,21.156-0.178,35.381-36.801L64.061,9.6V0h-5.515
	c0,0-8.18,33.605-24.889,46.229c0,0-14.225,11.201-22.758-2.135c0,0-3.914-5.333-3.914-11.201L0.031,34.993z"/>
<rect x="44.881" y="0.135" width="6.199" height="14.667"/>
<rect x="44.881" y="18.803" width="6.199" height="12.001"/>
<rect x="44.881" y="34.805" width="6.199" height="12.178"/>
<rect x="0.031" y="28.893" width="12.178" height="6.101"/>
<rect x="15.855" y="28.893" width="12.18" height="6.101"/>
<rect x="31.969" y="28.893" width="12.178" height="6.101"/>
<rect x="52.125" y="28.893" width="11.979" height="6.101"/>
<rect x="44.881" y="51.074" width="6.199" height="12.89"/>
</svg>
