<?xml version="1.0" encoding="utf-8"?>
<!-- Generator: Adobe Illustrator 16.0.0, SVG Export Plug-In . SVG Version: 6.00 Build 0)  -->
<!DOCTYPE svg PUBLIC "-//W3C//DTD SVG 1.1//EN" "http://www.w3.org/Graphics/SVG/1.1/DTD/svg11.dtd">
<svg version="1.1" id="Layer_1" xmlns="http://www.w3.org/2000/svg" xmlns:xlink="http://www.w3.org/1999/xlink" x="0px" y="0px"
	 width="64px" height="64px" viewBox="0 0 64 64" enable-background="new 0 0 64 64" xml:space="preserve">
<path fill="#E74A4A" d="M58.668,17.146h-4.623v16.081H7.816V17.146H5.33c-2.949,0-5.336,2.387-5.336,5.336v19.913
	c0,2.942,2.387,5.334,5.336,5.334h53.338c2.945,0,5.332-2.392,5.332-5.334V22.482C64,19.533,61.613,17.146,58.668,17.146z"/>
<rect x="12.438" y="51.842" fill="#4282C4" width="36.984" height="12.178"/>
<path fill="#4282C4" d="M12.438-0.078v27.467h36.984V-0.078H12.438z M43.287,23.014H17.863c-1.029,0-1.869-0.834-1.869-1.865
	c0-1.031,0.84-1.871,1.869-1.871h25.424c1.033,0,1.867,0.84,1.867,1.871C45.154,22.18,44.32,23.014,43.287,23.014z M43.287,15.902
	H17.863c-1.029,0-1.869-0.836-1.869-1.865c0-1.033,0.84-1.871,1.869-1.871h25.424c1.033,0,1.867,0.838,1.867,1.871
	C45.154,15.066,44.32,15.902,43.287,15.902z M43.287,8.789H17.863c-1.029,0-1.869-0.834-1.869-1.867c0-1.029,0.84-1.865,1.869-1.865
	h25.424c1.033,0,1.867,0.836,1.867,1.865C45.154,7.955,44.32,8.789,43.287,8.789z"/>
</svg>
