<?xml version="1.0" encoding="utf-8"?>
<!-- Generator: Adobe Illustrator 16.0.0, SVG Export Plug-In . SVG Version: 6.00 Build 0)  -->
<!DOCTYPE svg PUBLIC "-//W3C//DTD SVG 1.1//EN" "http://www.w3.org/Graphics/SVG/1.1/DTD/svg11.dtd">
<svg version="1.1" id="Layer_1" xmlns="http://www.w3.org/2000/svg" xmlns:xlink="http://www.w3.org/1999/xlink" x="0px" y="0px"
	 width="64px" height="64px" viewBox="0 0 64 64" enable-background="new 0 0 64 64" xml:space="preserve">
<g>
	<path d="M30.63,25.478h-5.319v-2.37h-0.068c-1.209,1.858-2.986,2.791-5.329,2.791c-2.155,0-3.886-0.76-5.198-2.28
		c-1.314-1.517-1.971-3.642-1.971-6.369c0-2.847,0.722-5.13,2.17-6.845c1.447-1.715,3.343-2.572,5.686-2.572
		c2.224,0,3.772,0.793,4.643,2.389h0.068V0.084h5.319L30.63,25.478L30.63,25.478z M25.412,17.102v-1.297
		c0-1.123-0.326-2.052-0.976-2.793c-0.649-0.74-1.496-1.11-2.54-1.11c-1.18,0-2.097,0.464-2.76,1.389
		c-0.661,0.923-0.993,2.194-0.993,3.812c0,1.512,0.322,2.677,0.96,3.498c0.638,0.819,1.525,1.228,2.659,1.228
		c1.078,0,1.952-0.432,2.633-1.295C25.072,19.667,25.412,18.524,25.412,17.102z"/>
	<path d="M51.507,8.25l-6.998,18.607c-1.684,4.474-4.218,6.711-7.606,6.711c-1.289,0-2.35-0.146-3.178-0.435v-4.242
		c0.703,0.413,1.477,0.624,2.301,0.624c1.369,0,2.328-0.647,2.863-1.936l0.909-2.137L32.799,8.25h5.887l3.213,10.482
		c0.201,0.651,0.36,1.416,0.473,2.305h0.068c0.1-0.652,0.287-1.408,0.557-2.271L46.24,8.25H51.507z"/>
</g>
<g>
	<path d="M29.12,63.582h-5.317v-2.376h-0.068C22.523,63.07,20.746,64,18.403,64c-2.153,0-3.886-0.759-5.2-2.282
		c-1.314-1.519-1.969-3.64-1.969-6.36c0-2.854,0.722-5.137,2.17-6.85c1.449-1.718,3.345-2.572,5.688-2.572
		c2.22,0,3.769,0.793,4.643,2.385h0.068V38.078h5.317V63.582z M23.902,55.202v-1.298c0-1.12-0.324-2.051-0.974-2.793
		c-0.653-0.736-1.496-1.106-2.542-1.106c-1.176,0-2.097,0.463-2.758,1.388c-0.661,0.922-0.993,2.192-0.993,3.811
		c0,1.513,0.32,2.681,0.96,3.499c0.638,0.819,1.525,1.229,2.657,1.229c1.078,0,1.956-0.432,2.631-1.299
		C23.564,57.771,23.902,56.625,23.902,55.202z"/>
	<path d="M50.232,46.354l-5.688,8.345l5.655,8.885h-6.125l-2.491-4.646c-0.197-0.371-0.441-0.893-0.725-1.566h-0.065
		c-0.167,0.475-0.399,0.979-0.69,1.516l-2.506,4.696h-6.109l5.826-8.581l-5.467-8.646h6.154l2.456,4.824
		c0.325,0.643,0.557,1.182,0.689,1.617h0.068c0.18-0.527,0.419-1.076,0.723-1.65l2.508-4.791h5.787V46.354z"/>
</g>
<g>
	<rect x="7.81" y="33.335" width="48.896" height="5.134"/>
</g>
</svg>
