<?xml version="1.0" encoding="UTF-8" standalone="no"?>
<!-- Generator: Adobe Illustrator 16.0.0, SVG Export Plug-In . SVG Version: 6.00 Build 0)  -->

<svg
   xmlns:dc="http://purl.org/dc/elements/1.1/"
   xmlns:cc="http://creativecommons.org/ns#"
   xmlns:rdf="http://www.w3.org/1999/02/22-rdf-syntax-ns#"
   xmlns:svg="http://www.w3.org/2000/svg"
   xmlns="http://www.w3.org/2000/svg"
   xmlns:sodipodi="http://sodipodi.sourceforge.net/DTD/sodipodi-0.dtd"
   xmlns:inkscape="http://www.inkscape.org/namespaces/inkscape"
   version="1.1"
   id="Layer_1"
   x="0px"
   y="0px"
   width="64px"
   height="64px"
   viewBox="0 0 64 64"
   enable-background="new 0 0 64 64"
   xml:space="preserve"
   sodipodi:docname="MenuZoomYOut.svg"
   inkscape:version="0.92.2 5c3e80d, 2017-08-06"
   inkscape:export-filename="/Users/IvanJohansen/Projects/Graph/Images/Actions/MenuZoomYOut.png"
   inkscape:export-xdpi="96"
   inkscape:export-ydpi="96"><metadata
     id="metadata7017"><rdf:RDF><cc:Work
         rdf:about=""><dc:format>image/svg+xml</dc:format><dc:type
           rdf:resource="http://purl.org/dc/dcmitype/StillImage" /></cc:Work></rdf:RDF></metadata><defs
     id="defs7015" /><sodipodi:namedview
     pagecolor="#ffffff"
     bordercolor="#666666"
     borderopacity="1"
     objecttolerance="10"
     gridtolerance="10"
     guidetolerance="10"
     inkscape:pageopacity="0"
     inkscape:pageshadow="2"
     inkscape:window-width="1025"
     inkscape:window-height="766"
     id="namedview7013"
     showgrid="false"
     inkscape:zoom="3.6875"
     inkscape:cx="27.025132"
     inkscape:cy="32"
     inkscape:window-x="213"
     inkscape:window-y="161"
     inkscape:window-maximized="0"
     inkscape:current-layer="Layer_1" /><g
     id="g7002"><polygon
       fill="#1BA8A2"
       points="52.816,42.523 57.406,47.109 58.605,48.313  "
       id="polygon6998" /><path
       fill="#1BA8A2"
       d="M61.992,51.702l-4.586-4.593l-5.691-5.686c-0.129-0.131-0.26-0.248-0.395-0.361   c2.301-4.014,3.619-8.655,3.619-13.612c0-15.152-12.283-27.436-27.434-27.436C12.354,0.014,0.07,12.297,0.07,27.45   c0,15.149,12.283,27.432,27.436,27.432c4.852,0,9.4-1.26,13.352-3.467c0.129,0.155,0.264,0.308,0.408,0.453l0.715,0.713   l0.479,0.479l9.088,9.088c2.475,2.47,6.482,2.47,8.953-0.006l1.492-1.492C64.465,58.18,64.465,54.173,61.992,51.702z    M27.506,49.521c-12.191,0-22.068-9.886-22.068-22.07c0-12.191,9.877-22.072,22.068-22.072c12.186,0,22.07,9.881,22.07,22.072   C49.576,39.636,39.691,49.521,27.506,49.521z"
       id="path7000" /></g><rect
     style="fill:#c4002e;fill-opacity:1;stroke-width:1.06737411"
     id="rect7004"
     height="20.806999"
     width="10.167"
     y="16.362"
     x="22.743853" /><polygon
     style="fill:#c4002e;fill-opacity:1"
     id="polygon7006"
     points="36.445,18.562 19.042,18.562 27.359,7.95 "
     transform="matrix(1.3634431,0,0,1,-10.083183,0)" /><polygon
     style="fill:#c4002e;fill-opacity:1"
     id="polygon7008"
     points="19.042,35.702 36.445,35.702 28.125,46.313 "
     transform="matrix(1.3634431,0,0,1,-10.083183,0)" /></svg>