<?xml version="1.0" encoding="utf-8"?>
<!-- Generator: Adobe Illustrator 16.0.0, SVG Export Plug-In . SVG Version: 6.00 Build 0)  -->
<!DOCTYPE svg PUBLIC "-//W3C//DTD SVG 1.1//EN" "http://www.w3.org/Graphics/SVG/1.1/DTD/svg11.dtd">
<svg version="1.1" id="Layer_1" xmlns="http://www.w3.org/2000/svg" xmlns:xlink="http://www.w3.org/1999/xlink" x="0px" y="0px"
	 width="64px" height="64px" viewBox="0 0 64 64" enable-background="new 0 0 64 64" xml:space="preserve">
<rect x="15.919" y="6.161" fill="#3D3D3D" width="6.221" height="12.094"/>
<path fill="#1C8BDC" d="M64.003,15.893c-0.006-0.959-0.51-2.137-1.176-2.835C58.96,9.026,55.012,5.074,50.999,1.187
	c-0.649-0.635-1.744-1.139-2.638-1.143C34.718-0.028,21.073-0.028,7.427,0.009C2.845,0.019,0.07,2.896,0.064,7.491
	c-0.01,8.176-0.006,16.353-0.002,24.525c0,8.102,0.184,16.208-0.068,24.304c-0.125,4.029,2.252,6.878,5.623,7.74h52.912
	c3.482-0.724,5.517-3.349,5.521-7.291C64.061,43.145,64.077,29.521,64.003,15.893z M12.897,4.225h33.955v16.423H12.897V4.225z
	 M51.479,58.489H9.874V29.928h41.604V58.489z"/>
</svg>
