<?xml version="1.0" encoding="utf-8"?>
<!-- Generator: Adobe Illustrator 16.0.0, SVG Export Plug-In . SVG Version: 6.00 Build 0)  -->
<!DOCTYPE svg PUBLIC "-//W3C//DTD SVG 1.1//EN" "http://www.w3.org/Graphics/SVG/1.1/DTD/svg11.dtd">
<svg version="1.1" id="Layer_1" xmlns="http://www.w3.org/2000/svg" xmlns:xlink="http://www.w3.org/1999/xlink" x="0px" y="0px"
	 width="64px" height="64px" viewBox="0 0 64 64" enable-background="new 0 0 64 64" xml:space="preserve">
<polygon fill="#E08205" points="25.976,23.048 25.976,48.076 43.672,35.42 "/>
<path fill="#F99F28" d="M9.714,58.911l3.099-2.974c-5.257-5.06-8.54-12.158-8.54-20.017c0-15.321,12.45-27.784,27.757-27.784
	c15.304,0,27.755,12.463,27.755,27.784c0,7.334-2.857,14.009-7.516,18.978l2.869,3.209c5.525-5.764,8.938-13.584,8.938-22.187
	c0-17.688-14.379-32.079-32.047-32.079c-17.673,0-32.045,14.391-32.045,32.079C-0.015,44.934,3.72,53.077,9.714,58.911z"/>
<path fill="#FF9900" d="M32.03,13.867c-12.15,0-22.034,9.895-22.034,22.055c0,6.321,2.676,12.029,6.949,16.055l3.099-2.975
	c-3.539-3.248-5.758-7.908-5.758-13.08c0-9.795,7.959-17.763,17.744-17.763c9.783,0,17.742,7.968,17.742,17.763
	c0,4.37-1.586,8.375-4.211,11.471l2.879,3.227c3.496-3.904,5.623-9.059,5.623-14.696C54.063,23.762,44.18,13.867,32.03,13.867z"/>
</svg>
