<?xml version="1.0" encoding="utf-8"?>
<!-- Generator: Adobe Illustrator 16.0.0, SVG Export Plug-In . SVG Version: 6.00 Build 0)  -->
<!DOCTYPE svg PUBLIC "-//W3C//DTD SVG 1.1//EN" "http://www.w3.org/Graphics/SVG/1.1/DTD/svg11.dtd">
<svg version="1.1" id="Layer_1" xmlns="http://www.w3.org/2000/svg" xmlns:xlink="http://www.w3.org/1999/xlink" x="0px" y="0px"
	 width="64px" height="64px" viewBox="0 0 64 64" enable-background="new 0 0 64 64" xml:space="preserve">
<path fill="#1BA8A2" d="M62.243,53.514l-0.599-0.602L44.139,35.41l-0.599-0.602c-0.104-0.105-0.217-0.203-0.33-0.302
	c1.937-3.381,3.049-7.295,3.049-11.471c0-0.436-0.014-0.871-0.038-1.303l-6.695,6.693c-2.262,6.885-8.738,11.857-16.379,11.857
	c-9.527,0-17.248-7.727-17.248-17.248c0-9.523,7.721-17.25,17.248-17.25c1.975,0,3.869,0.338,5.635,0.951l4.482-4.484
	c-3.056-1.49-6.489-2.332-10.118-2.332C10.38-0.08,0.029,10.266,0.029,23.035c0,12.766,10.352,23.113,23.117,23.113
	c4.082,0,7.916-1.064,11.247-2.922c0.108,0.129,0.225,0.256,0.348,0.381l0.602,0.6l17.502,17.504l0.602,0.604
	c2.082,2.082,5.462,2.082,7.543,0l1.257-1.262C64.327,58.975,64.327,55.6,62.243,53.514z"/>
<path fill="#F37C00" d="M47.727,5.145l-1.136-1.133c-2.084-2.08-5.461-2.082-7.543,0L26.235,16.826l-2.084-2.078
	c-2.082-2.084-5.461-2.084-7.543,0l-1.131,1.131c-2.084,2.082-2.084,5.459,0,7.545l5.701,5.701c0.051,0.051,0.092,0.107,0.143,0.158
	l1.133,1.131c0.27,0.271,0.564,0.504,0.873,0.705c2.07,1.365,4.885,1.141,6.707-0.682l1.131-1.133
	c0.154-0.152,0.295-0.314,0.424-0.484l16.138-16.133C49.809,10.604,49.809,7.227,47.727,5.145z"/>
</svg>
