<?xml version="1.0" encoding="utf-8"?>
<!-- Generator: Adobe Illustrator 16.0.0, SVG Export Plug-In . SVG Version: 6.00 Build 0)  -->
<!DOCTYPE svg PUBLIC "-//W3C//DTD SVG 1.1//EN" "http://www.w3.org/Graphics/SVG/1.1/DTD/svg11.dtd">
<svg version="1.1" id="Layer_1" xmlns="http://www.w3.org/2000/svg" xmlns:xlink="http://www.w3.org/1999/xlink" x="0px" y="0px"
	 width="64px" height="64px" viewBox="0 0 64 64" enable-background="new 0 0 64 64" xml:space="preserve">
<path fill="#FF0000" d="M56.76,37.925c-0.377-1.302-1.488-3.202-1.852-5.138c-0.02-0.104-0.031-0.211-0.047-0.315L26.1,3.708
	c-1.135,1.542-2.287,3.075-3.43,4.619l35.27,35.271C57.594,41.693,57.295,39.773,56.76,37.925z"/>
<path fill="#FF0000" d="M60.594,60.521c-0.512-2.791-0.85-5.612-1.225-8.428L19.713,12.437c-1.109,1.596-2.178,3.213-3.168,4.878
	l43.746,43.744l0.35-0.353C60.627,60.645,60.605,60.585,60.594,60.521z"/>
<path fill="#FF0000" d="M56.191,64.029L14.094,21.933c-0.422,0.913-0.822,1.841-1.186,2.79c-0.377,0.99-0.734,1.984-1.09,2.98
	l36.329,36.326H56.191L56.191,64.029z"/>
<path fill="#FF0000" d="M41.066,64.016L10.039,32.988c-0.654,2.041-1.287,4.088-1.906,6.142l24.885,24.886H41.066z"/>
<path fill="#FF0000" d="M25.939,64.006L6.5,44.563c-0.615,2.054-1.246,4.103-1.902,6.146l13.297,13.298H25.939z"/>
<path d="M4.826,64.02C7.371,46.593,16.668,5.641,32.377,5.081c0.514,0.054,5.271,0.724,10.748,7.277
	c5.74,6.859,13.148,21.387,16.102,51.662h4.799C58.094,1.965,33.559,0.319,32.512,0.28l-0.076-0.003l-0.074,0.002
	C22.209,0.527,13.648,11.648,6.912,33.32C2.588,47.248,0.459,60.893,0.002,64.02H4.826z"/>
</svg>
