<?xml version="1.0" encoding="UTF-8" standalone="no"?>
<svg
   xmlns:dc="http://purl.org/dc/elements/1.1/"
   xmlns:cc="http://creativecommons.org/ns#"
   xmlns:rdf="http://www.w3.org/1999/02/22-rdf-syntax-ns#"
   xmlns:svg="http://www.w3.org/2000/svg"
   xmlns="http://www.w3.org/2000/svg"
   xmlns:sodipodi="http://sodipodi.sourceforge.net/DTD/sodipodi-0.dtd"
   xmlns:inkscape="http://www.inkscape.org/namespaces/inkscape"
   width="64"
   height="64"
   viewBox="0 0 64 64"
   version="1.1"
   id="svg9704"
   sodipodi:docname="Test.svg"
   inkscape:version="0.92.2 5c3e80d, 2017-08-06"
   inkscape:export-filename="/Users/IvanJohansen/Downloads/Test.png"
   inkscape:export-xdpi="96"
   inkscape:export-ydpi="96">
  <metadata
     id="metadata9710">
    <rdf:RDF>
      <cc:Work
         rdf:about="">
        <dc:format>image/svg+xml</dc:format>
        <dc:type
           rdf:resource="http://purl.org/dc/dcmitype/StillImage" />
        <dc:title></dc:title>
      </cc:Work>
    </rdf:RDF>
  </metadata>
  <defs
     id="defs9708" />
  <sodipodi:namedview
     pagecolor="#ffffff"
     bordercolor="#666666"
     borderopacity="1"
     objecttolerance="10"
     gridtolerance="10"
     guidetolerance="10"
     inkscape:pageopacity="0"
     inkscape:pageshadow="2"
     inkscape:window-width="1949"
     inkscape:window-height="1270"
     id="namedview9706"
     showgrid="false"
     inkscape:zoom="8"
     inkscape:cx="59.157035"
     inkscape:cy="39.241151"
     inkscape:window-x="0"
     inkscape:window-y="0"
     inkscape:window-maximized="0"
     inkscape:current-layer="svg9704" />
  <polyline
     style="fill:none;stroke:#000000;stroke-width:60;stroke-linecap:square;stroke-linejoin:round;stroke-miterlimit:4;stroke-dasharray:none"
     id="polyline9698"
     points="43,640 44,638 45,631 46,624 47,616 48,609 49,602 50,595 51,588 52,581 53,574 54,567 55,560 56,554 57,547 58,541 59,534 60,528 61,521 62,515 63,509 64,503 65,496 66,490 67,484 68,478 69,473 70,467 71,461 72,455 73,450 74,444 75,439 76,433 77,428 78,423 79,417 80,412 81,407 82,402 83,397 84,392 85,387 86,382 87,378 88,373 89,368 90,364 91,359 92,355 93,350 94,346 95,342 96,337 97,333 98,329 99,325 100,321 101,317 102,313 103,309 104,305 105,301 106,298 107,294 108,290 109,287 110,283 111,280 112,277 113,273 114,270 115,267 116,263 117,260 118,257 119,254 120,251 121,248 122,245 123,243 124,240 125,237 126,234 127,232 128,229 129,226 130,224 131,221 132,219 133,217 134,214 135,212 136,210 137,208 138,206 139,203 140,201 141,199 142,197 143,196 144,194 145,192 146,190 147,188 148,187 149,185 150,183 151,182 152,180 153,179 154,177 155,176 156,175 157,173 158,172 159,171 160,170 161,168 162,167 163,166 164,165 165,164 166,163 167,162 168,161 169,161 170,160 171,159 172,158 173,158 174,157 175,156 176,156 177,155 178,155 179,154 180,154 181,153 182,153 183,152 184,152 185,152 186,152 187,151 188,151 189,151 190,151 191,151 192,151 193,151 194,151 195,151 196,151 197,151 198,151 199,151 200,152 201,152 202,152 203,152 204,153 205,153 206,153 207,154 208,154 209,155 210,155 211,156 212,156 213,157 214,157 215,158 216,159 217,159 218,160 219,161 220,161 221,162 222,163 223,164 224,165 225,165 226,166 227,167 228,168 229,169 230,170 231,171 232,172 233,173 234,174 235,175 236,177 237,178 238,179 239,180 240,181 241,182 242,184 243,185 244,186 245,187 246,189 247,190 248,191 249,193 250,194 251,196 252,197 253,198 254,200 255,201 256,203 257,204 258,206 259,207 260,209 261,211 262,212 263,214 264,215 265,217 266,219 267,220 268,222 269,223 270,225 271,227 272,229 273,230 274,232 275,234 276,236 277,237 278,239 279,241 280,243 281,244 282,246 283,248 284,250 285,252 286,254 287,255 288,257 289,259 290,261 291,263 292,265 293,267 294,269 295,271 296,273 297,275 298,276 299,278 300,280 301,282 302,284 303,286 304,288 305,290 306,292 307,294 308,296 309,298 310,300 311,302 312,304 313,306 314,308 315,310 316,312 317,314 318,316 319,318 320,320 321,322 322,324 323,326 324,328 325,330 326,332 327,334 328,336 329,338 330,340 331,342 332,344 333,346 334,348 335,350 336,352 337,354 338,356 339,358 340,360 341,362 342,364 343,365 344,367 345,369 346,371 347,373 348,375 349,377 350,379 351,381 352,383 353,385 354,386 355,388 356,390 357,392 358,394 359,396 360,397 361,399 362,401 363,403 364,404 365,406 366,408 367,410 368,411 369,413 370,415 371,417 372,418 373,420 374,421 375,423 376,425 377,426 378,428 379,429 380,431 381,433 382,434 383,436 384,437 385,439 386,440 387,442 388,443 389,444 390,446 391,447 392,449 393,450 394,451 395,453 396,454 397,455 398,456 399,458 400,459 401,460 402,461 403,462 404,463 405,465 406,466 407,467 408,468 409,469 410,470 411,471 412,472 413,473 414,474 415,475 416,475 417,476 418,477 419,478 420,479 421,479 422,480 423,481 424,481 425,482 426,483 427,483 428,484 429,484 430,485 431,485 432,486 433,486 434,487 435,487 436,487 437,488 438,488 439,488 440,488 441,489 442,489 443,489 444,489 445,489 446,489 447,489 448,489 449,489 450,489 451,489 452,489 453,489 454,488 455,488 456,488 457,488 458,487 459,487 460,486 461,486 462,485 463,485 464,484 465,484 466,483 467,482 468,482 469,481 470,480 471,479 472,479 473,478 474,477 475,476 476,475 477,474 478,473 479,472 480,470 481,469 482,468 483,467 484,465 485,464 486,463 487,461 488,460 489,458 490,457 491,455 492,453 493,452 494,450 495,448 496,446 497,444 498,443 499,441 500,439 501,437 502,434 503,432 504,430 505,428 506,426 507,423 508,421 509,419 510,416 511,414 512,411 513,408 514,406 515,403 516,400 517,397 518,395 519,392 520,389 521,386 522,383 523,380 524,377 525,373 526,370 527,367 528,363 529,360 530,357 531,353 532,350 533,346 534,342 535,339 536,335 537,331 538,327 539,323 540,319 541,315 542,311 543,307 544,303 545,298 546,294 547,290 548,285 549,281 550,276 551,272 552,267 553,262 554,258 555,253 556,248 557,243 558,238 559,233 560,228 561,223 562,217 563,212 564,207 565,201 566,196 567,190 568,185 569,179 570,173 571,167 572,162 573,156 574,150 575,144 576,137 577,131 578,125 579,119 580,112 581,106 582,99 583,93 584,86 585,80 586,73 587,66 588,59 589,52 590,45 591,38 592,31 593,24 594,16 595,9 596,2 597,0 "
     transform="matrix(0.1,0,0,0.1,-0.31970451,-0.27492239)" />
  <polyline
     style="fill:none;stroke:#cf0000;stroke-width:60;stroke-linecap:square;stroke-linejoin:round;stroke-miterlimit:4;stroke-dasharray:none;stroke-opacity:1"
     id="polyline9696"
     points="0,44 640,383 "
     transform="matrix(0.1,0,0,0.1,-0.31970451,-0.27492239)" />
  <circle
     style="fill:#cf0000;fill-opacity:1;stroke:#000000;stroke-width:0.71999997;stroke-linecap:round;stroke-linejoin:round;stroke-miterlimit:4;stroke-dasharray:none"
     id="circle9700"
     r="5.4000001"
     cy="15.325084"
     cx="20.780302" />
</svg>
