<?xml version="1.0" encoding="utf-8"?>
<!-- Generator: Adobe Illustrator 16.0.0, SVG Export Plug-In . SVG Version: 6.00 Build 0)  -->
<!DOCTYPE svg PUBLIC "-//W3C//DTD SVG 1.1//EN" "http://www.w3.org/Graphics/SVG/1.1/DTD/svg11.dtd">
<svg version="1.1" id="Layer_1" xmlns="http://www.w3.org/2000/svg" xmlns:xlink="http://www.w3.org/1999/xlink" x="0px" y="0px"
	 width="64px" height="64px" viewBox="0 0 64 64" enable-background="new 0 0 64 64" xml:space="preserve">
<path fill="#ED1F24" d="M51.891,4.941H38.505C37.58,2.148,34.952,0.13,31.851,0.13c-3.103,0-5.727,2.018-6.651,4.811H12.206
	c-2.875,0-5.208,2.331-5.208,5.205c0,0.293,0.027,0.58,0.072,0.857h49.958c0.047-0.277,0.072-0.564,0.072-0.857
	C57.1,7.272,54.768,4.941,51.891,4.941z"/>
<path fill="#ED1F24" d="M52.527,14.629l-20.091,0.066l-20.094-0.066l1.383,45.882c0,0-0.394,3.562,4.65,3.562h14.047h0.027h14.044
	c5.045,0,4.647-3.562,4.647-3.562L52.527,14.629z M20.549,56.994h-0.035c-0.984,0-1.794-0.801-1.813-1.785l-0.56-32.263
	c-0.008-0.483,0.175-0.942,0.513-1.293c0.337-0.354,0.788-0.545,1.309-0.557c0.981,0,1.801,0.802,1.818,1.785l0.556,32.264
	C22.354,56.148,21.552,56.979,20.549,56.994z M34.896,54.639c-0.004,0.916-0.692,1.67-1.576,1.789
	c-0.118-0.016-0.231-0.037-0.358-0.037c-0.084,0-0.157,0.019-0.237,0.025c-0.837-0.168-1.466-0.904-1.461-1.787l0.094-32.268
	c0.002-0.999,0.817-1.812,1.82-1.812c1.005,0.002,1.815,0.82,1.812,1.821L34.896,54.639z M46.844,55.166
	c-0.037,0.979-0.832,1.745-1.811,1.745h-0.076c-1-0.04-1.784-0.888-1.743-1.892l1.274-32.241c0.039-0.979,0.832-1.744,1.813-1.744
	l0.072,0.002c1.001,0.039,1.787,0.885,1.746,1.886L46.844,55.166z"/>
</svg>
