<?xml version="1.0" encoding="utf-8"?>
<!-- Generator: Adobe Illustrator 16.0.0, SVG Export Plug-In . SVG Version: 6.00 Build 0)  -->
<!DOCTYPE svg PUBLIC "-//W3C//DTD SVG 1.1//EN" "http://www.w3.org/Graphics/SVG/1.1/DTD/svg11.dtd">
<svg version="1.1" id="Layer_1" xmlns="http://www.w3.org/2000/svg" xmlns:xlink="http://www.w3.org/1999/xlink" x="0px" y="0px"
	 width="64px" height="64px" viewBox="0 0 64 64" enable-background="new 0 0 64 64" xml:space="preserve">
<g>
	<polygon fill="#DD0E0E" points="35.16,11.332 40.805,11.332 35.16,4.277 31.736,0 28.404,3.99 22.27,11.332 28.404,11.332 
		28.404,52.561 22.27,52.561 28.404,60.229 31.336,63.896 35.16,59.318 40.805,52.561 35.16,52.561 	"/>
	<polygon fill="#DD0E0E" points="52.695,28.225 52.695,22.58 59.75,28.225 64.029,31.646 60.037,34.979 52.695,41.111 
		52.695,34.979 11.467,34.979 11.467,41.111 3.801,34.979 0.133,32.047 4.711,28.225 11.467,22.58 11.467,28.225 	"/>
</g>
</svg>
