<?xml version="1.0" encoding="utf-8"?>
<!-- Generator: Adobe Illustrator 16.0.0, SVG Export Plug-In . SVG Version: 6.00 Build 0)  -->
<!DOCTYPE svg PUBLIC "-//W3C//DTD SVG 1.1//EN" "http://www.w3.org/Graphics/SVG/1.1/DTD/svg11.dtd">
<svg version="1.1" id="Layer_1" xmlns="http://www.w3.org/2000/svg" xmlns:xlink="http://www.w3.org/1999/xlink" x="0px" y="0px"
	 width="64px" height="64px" viewBox="0 0 64 64" enable-background="new 0 0 64 64" xml:space="preserve">
<rect x="15.864" y="6.177" fill="#3D3D3D" width="6.221" height="12.094"/>
<polygon fill="#C3002D" points="5.282,58.454 25.553,39.605 40.846,58.811 "/>
<polygon fill="#C3002D" points="35.512,54.184 45.818,42.096 56.137,51.343 55.777,58.811 50.802,60.585 38.712,61.298 "/>
<path fill="#C3002D" d="M41.198,37.648c0,2.453-1.986,4.445-4.445,4.445c-2.453,0-4.443-1.992-4.443-4.445s1.99-4.442,4.443-4.442
	C39.212,33.206,41.198,35.195,41.198,37.648z"/>
<path fill="#1C8BDC" d="M63.943,15.847c-0.004-0.955-0.508-2.129-1.176-2.824C58.902,9.007,54.954,5.07,50.943,1.199
	C50.29,0.565,49.2,0.063,48.311,0.06C34.663-0.013,21.018-0.013,7.372,0.024c-4.584,0.01-7.358,2.875-7.366,7.453
	c-0.012,8.145-0.004,16.289-0.002,24.43c0.002,8.069,0.184,16.145-0.064,24.209c-0.129,4.014,2.25,6.852,5.622,7.711h52.915
	c3.484-0.722,5.512-3.336,5.515-7.263C64.001,42.991,64.02,29.421,63.943,15.847z M12.838,4.224H46.8v16.359H12.838V4.224z
	 M51.421,58.275H9.815V29.827h41.606V58.275L51.421,58.275z"/>
</svg>
