<?xml version="1.0" encoding="utf-8"?>
<!-- Generator: Adobe Illustrator 16.0.0, SVG Export Plug-In . SVG Version: 6.00 Build 0)  -->
<!DOCTYPE svg PUBLIC "-//W3C//DTD SVG 1.1//EN" "http://www.w3.org/Graphics/SVG/1.1/DTD/svg11.dtd">
<svg version="1.1" id="Layer_1" xmlns="http://www.w3.org/2000/svg" xmlns:xlink="http://www.w3.org/1999/xlink" x="0px" y="0px"
	 width="64px" height="64px" viewBox="0 0 64 64" enable-background="new 0 0 64 64" xml:space="preserve">
<polygon fill="#3D3D3D" points="20.316,62.146 0.108,52.303 2.853,46.814 22.907,56.672 "/>
<path fill="#36D142" d="M62.316,31.954l-11.942,13.06l-0.031,0.039c-0.018,0.023-1.926,2.286-6.211,2.286H27.339l-0.156,0.015
	c-0.219,0.035-4.995,0.938-7.398,6.133L6.327,46.87c1.917-4.288,9.018-17.818,22.502-18.269H42.15
	c0.486,0.023,4.041,0.329,4.07,3.915c-0.037,0.299-0.441,2.504-4.143,2.504h-7.23c-0.264-0.022-0.949-0.024-1.561,0.488
	c-0.643,0.542-0.966,1.434-0.966,2.646l0.002,0.061c0.014,0.229,0.254,2.215,3.915,2.234c1.271,0.154,10.188,1.101,12.691-2.377
	l9.004-9.471l0.055-0.061c0.49-0.619,2.086-2.263,3.557-2.428c0.531-0.063,0.996,0.077,1.455,0.441
	c0.008,0.008,0.926,0.733,1.014,1.943C64.096,29.556,63.532,30.711,62.316,31.954z"/>
<path fill="#FF9900" d="M36.854,0.1c-11.637,0-21.069,9.434-21.069,21.072c0,2.528,0.446,4.959,1.268,7.205
	c1.496-0.903,3.121-1.671,4.867-2.264c-0.519-1.558-0.802-3.224-0.802-4.955c0-8.688,7.046-15.731,15.736-15.731
	c6.582,0,12.215,4.043,14.565,9.779c0.006-0.002,0.013-0.004,0.013-0.004s0.028,0.084,0.077,0.236
	c0.265,0.666,0.478,1.358,0.646,2.069c0.07,0.226,0.142,0.472,0.218,0.723l1.282,9.243l0.734-0.64
	c0.006,0.023,0.01,0.047,0.012,0.07l0.748-0.789c0.361-0.441,1.3-1.499,2.611-2.382c0.102-0.842,0.16-1.694,0.16-2.562
	C57.921,9.533,48.486,0.1,36.854,0.1z"/>
</svg>
