<?xml version="1.0" encoding="utf-8"?>
<!-- Generator: Adobe Illustrator 16.0.0, SVG Export Plug-In . SVG Version: 6.00 Build 0)  -->
<!DOCTYPE svg PUBLIC "-//W3C//DTD SVG 1.1//EN" "http://www.w3.org/Graphics/SVG/1.1/DTD/svg11.dtd">
<svg version="1.1" id="Layer_1" xmlns="http://www.w3.org/2000/svg" xmlns:xlink="http://www.w3.org/1999/xlink" x="0px" y="0px"
	 width="64px" height="64px" viewBox="0 0 64 64" enable-background="new 0 0 64 64" xml:space="preserve">
<path fill="#3D3D3D" d="M59.422,10.205H29.919l5.224,5.218H55.12c2.022,0,3.665,1.655,3.665,3.701V55.05
	c0,2.044-1.643,3.702-3.665,3.702H19.381c-2.026,0-3.667-1.658-3.667-3.702V34.624l-5.187-5.186v29.936
	c0,2.539,2.036,4.599,4.548,4.599h44.347c2.516,0,4.549-2.06,4.549-4.599V14.8C63.971,12.26,61.938,10.205,59.422,10.205z"/>
<path fill="#D82F23" d="M31.414,4.213C30.14,2.977,28.9,1.73,27.595,0.559c-0.32-0.285-0.893-0.482-1.314-0.434
	c-3.096,0.354-6.182,0.76-9.266,1.204c-0.445,0.065-0.924,0.37-1.252,0.696C12.398,5.352,9.07,8.712,5.703,12.037
	c-0.678,0.67-1.043,1.282-0.531,2.244c0.172,0.322,0.127,1.079-0.088,1.219c-0.334,0.216-0.9,0.073-1.369,0.081
	c-0.508,0.008-1.139-0.18-1.496,0.054C1.36,16.196,0.633,16.95,0.012,17.49c3.229,3.234,6.17,6.185,9.182,9.208
	c0.227-0.255,0.502-0.614,0.828-0.924c0.928-0.875,1.785-1.618,1.074-3.188c-0.479-1.059,0.563-1.341,1.322-0.966
	c1.131,0.553,1.779,0.052,2.473-0.691c0.58-0.628,1.207-1.209,1.809-1.818c0.131-0.127,0.258-0.26,0.385-0.392l6.252-6.324
	C25.994,9.702,28.673,6.989,31.414,4.213z"/>
<path fill="#FFC612" d="M48.697,47.962c2.129-0.899,4.418-3.769,4.098-5.655c-0.203-1.187-0.877-2.488-1.742-3.33
	c-8.518-8.268-17.119-16.455-25.704-24.66c-0.672-0.642-1.344-1.283-2.014-1.922l-6.252,6.324
	C25.89,27.932,34.699,37.145,43.5,46.357C45.332,48.271,46.85,48.746,48.697,47.962z"/>
</svg>
