<?xml version="1.0" encoding="utf-8"?>
<!-- Generator: Adobe Illustrator 16.0.0, SVG Export Plug-In . SVG Version: 6.00 Build 0)  -->
<!DOCTYPE svg PUBLIC "-//W3C//DTD SVG 1.1//EN" "http://www.w3.org/Graphics/SVG/1.1/DTD/svg11.dtd">
<svg version="1.1" id="Layer_1" xmlns="http://www.w3.org/2000/svg" xmlns:xlink="http://www.w3.org/1999/xlink" x="0px" y="0px"
	 width="64px" height="64px" viewBox="0 0 64 64" enable-background="new 0 0 64 64" xml:space="preserve">
<path fill="#B34A30" d="M63.525,35.948L63.525,35.948c1.953-5.571-2.449-10.49-7.238-11.878c-2.678-0.777-5.309-0.783-7.922,0.27
	c-2.654,1.063-4.379,3.001-5.334,5.705c-3.488-0.83-6.887-1.603-10.262-2.483c-0.433-0.114-0.877-0.721-1.054-1.199
	c-2.648-7.19-5.271-14.385-7.883-21.588c-2.494-5.604-5.963-4.772-6.473-4.614c2.613,8.496,5.227,16.987,7.889,25.651
	c-8.402-1.997-16.613-3.945-24.813-5.892l0.035,0.055c-0.553,5.08,4.205,5.886,4.205,5.886c0.195,0.072,0.373,0.145,0.543,0.219
	c7.002,2.034,13.996,4.077,20.988,6.137c0.457,0.135,1.092,0.457,1.217,0.835c1.121,3.396,2.145,6.822,3.176,10.157
	c-0.936,0.588-1.811,0.998-2.51,1.604c-4.01,3.459-4.512,9.941-1.199,14.74c2.764,4.006,6.486,5.24,10.878,3.641
	c2.369-1.002,3.572-2.901,3.982-3.684c2.092-4.641,1.289-9.005-1.875-13.201c-1.402-1.859-2.787-3.771-3.877-5.824
	c-1.148-2.17-1.943-4.531-3.004-7.075c4.205,0.378,7.477,1.921,10.646,3.719c1.039,0.588,2.041,1.247,3.028,1.917
	c4.408,2.987,8.879,3.447,13.433,0.961C60.4,39.807,62.615,38.247,63.525,35.948z M37.539,57.257
	c-0.902,1.87-2.629,2.474-4.49,1.563c-2.965-1.439-4.488-6.176-2.932-9.102c1.234-2.308,3.641-2.556,5.752-0.593
	C38.012,51.118,38.758,54.748,37.539,57.257z M49.213,34.893c-2.504-2.344-1.834-5.281,1.434-6.307
	c2.914-0.91,6.636,0.407,8.035,2.844c1.029,1.791,0.551,3.576-1.242,4.595C55.004,37.412,51.367,36.908,49.213,34.893z"/>
</svg>
