<?xml version="1.0" encoding="utf-8"?>
<!-- Generator: Adobe Illustrator 16.0.0, SVG Export Plug-In . SVG Version: 6.00 Build 0)  -->
<!DOCTYPE svg PUBLIC "-//W3C//DTD SVG 1.1//EN" "http://www.w3.org/Graphics/SVG/1.1/DTD/svg11.dtd">
<svg version="1.1" id="Layer_1" xmlns="http://www.w3.org/2000/svg" xmlns:xlink="http://www.w3.org/1999/xlink" x="0px" y="0px"
	 width="64px" height="64px" viewBox="0 0 64 64" enable-background="new 0 0 64 64" xml:space="preserve">
<path fill="#E74A4A" d="M39.424,22.26l4.492-0.793l-1.248-7.096l-4.492,0.791c-0.619-1.539-1.455-2.971-2.463-4.256l2.936-3.498
	l-5.521-4.631L30.19,6.271c-1.432-0.768-2.982-1.34-4.62-1.686v-4.56h-7.203v4.561c-1.635,0.346-3.189,0.918-4.621,1.686
	l-2.934-3.494L5.29,7.408l2.934,3.498c-1.006,1.285-1.842,2.717-2.461,4.256l-4.49-0.791l-1.254,7.096l4.49,0.793
	c0.057,1.684,0.352,3.311,0.855,4.844l-3.951,2.279l3.604,6.24l3.957-2.285c1.096,1.223,2.363,2.289,3.764,3.162l-1.563,4.293
	l6.775,2.463l1.557-4.287c0.805,0.117,1.623,0.178,2.459,0.178c0.838,0,1.656-0.061,2.461-0.178l1.561,4.287l6.77-2.463L31.195,36.5
	c1.401-0.873,2.67-1.939,3.766-3.162l3.959,2.285l3.604-6.24l-3.95-2.281C39.078,25.57,39.371,23.943,39.424,22.26z M21.966,35.143
	c-7.426,0-13.465-6.041-13.465-13.462c0-7.426,6.039-13.469,13.465-13.469c7.426,0,13.468,6.043,13.468,13.469
	C35.434,29.102,29.392,35.143,21.966,35.143z"/>
<path fill="#3D3D3D" d="M21.966,28.961c-4.014,0-7.281-3.268-7.281-7.281c0-4.02,3.268-7.285,7.281-7.285
	c4.018,0,7.288,3.266,7.288,7.285C29.253,25.693,25.983,28.961,21.966,28.961L21.966,28.961z"/>
<path fill="#E74A4A" d="M61.168,48.512L64,47.598l-1.447-4.469l-2.832,0.914c-0.537-0.938-1.205-1.787-1.973-2.523l1.58-2.526
	l-3.98-2.494l-1.582,2.521c-0.996-0.365-2.047-0.598-3.137-0.67L50.221,35.4l-4.654,0.649l0.412,2.943
	C44.951,39.367,44,39.877,43.145,40.5l-2.207-1.994l-3.147,3.49l2.209,1.994c-0.537,0.922-0.944,1.92-1.209,2.971l-2.974-0.105
	l-0.168,4.691l2.972,0.107c0.188,1.086,0.526,2.104,0.987,3.051l-2.346,1.834l2.891,3.701l2.351-1.826
	c0.815,0.686,1.731,1.262,2.713,1.697l-0.623,2.918l4.599,0.979l0.621-2.91c0.528,0.002,1.065-0.031,1.604-0.104
	c0.543-0.074,1.064-0.188,1.574-0.336l1.391,2.627l4.152-2.203l-1.395-2.629c0.825-0.688,1.547-1.49,2.146-2.379l2.76,1.116
	l1.767-4.352l-2.754-1.119C61.236,50.684,61.281,49.604,61.168,48.512z M50.859,57.002c-4.021,0.559-7.746-2.256-8.308-6.277
	c-0.561-4.018,2.257-7.744,6.275-8.303s7.743,2.254,8.305,6.273C57.689,52.713,54.879,56.439,50.859,57.002z"/>
</svg>
