<?xml version="1.0" encoding="utf-8"?>
<!-- Generator: Adobe Illustrator 16.0.0, SVG Export Plug-In . SVG Version: 6.00 Build 0)  -->
<!DOCTYPE svg PUBLIC "-//W3C//DTD SVG 1.1//EN" "http://www.w3.org/Graphics/SVG/1.1/DTD/svg11.dtd">
<svg version="1.1" id="Layer_1" xmlns="http://www.w3.org/2000/svg" xmlns:xlink="http://www.w3.org/1999/xlink" x="0px" y="0px"
	 width="64px" height="64px" viewBox="0 0 64 64" enable-background="new 0 0 64 64" xml:space="preserve">
<g>
	<polygon fill="#F37C00" points="45.496,41.229 45.496,22.531 31.445,22.531 31.445,63.84 64.037,63.84 64.037,41.229 	"/>
	<polygon fill="#F37C00" points="64.037,38.146 48.549,22.531 48.549,38.146 	"/>
</g>
<polygon fill="#0F6933" points="4.679,50.396 4.679,13.945 37.744,13.945 37.744,8.168 0.056,8.168 0.056,56.439 26.109,56.439 
	26.109,50.396 "/>
<rect x="10.498" y="8.967" fill="#0F6933" width="20.936" height="9.869"/>
<path fill="#0F6933" d="M23.921,0.033h-7.934c-6.398,0-5,8.4-5,8.4l13.07,1.068L30.722,8.3V4.834
	C30.723-0.836,23.921,0.033,23.921,0.033z M20.855,7.631c-1.473,0-2.664-1.188-2.664-2.662c0-1.473,1.191-2.668,2.664-2.668
	c1.475,0,2.67,1.195,2.67,2.668C23.525,6.443,22.33,7.631,20.855,7.631z"/>
<rect x="8.324" y="25.236" fill="#3D3D3D" width="19.203" height="4"/>
<rect x="8.324" y="34.037" fill="#3D3D3D" width="19.203" height="4"/>
<rect x="8.324" y="42.84" fill="#3D3D3D" width="19.203" height="3.998"/>
</svg>
