<?xml version="1.0" encoding="utf-8"?>
<!-- Generator: Adobe Illustrator 16.0.0, SVG Export Plug-In . SVG Version: 6.00 Build 0)  -->
<!DOCTYPE svg PUBLIC "-//W3C//DTD SVG 1.1//EN" "http://www.w3.org/Graphics/SVG/1.1/DTD/svg11.dtd">
<svg version="1.1" id="Layer_1" xmlns="http://www.w3.org/2000/svg" xmlns:xlink="http://www.w3.org/1999/xlink" x="0px" y="0px"
	 width="64px" height="64px" viewBox="0 0 64 64" enable-background="new 0 0 64 64" xml:space="preserve">
<path fill-rule="evenodd" clip-rule="evenodd" fill="#F37C00" d="M8.917,36.325c0-0.711,0-1.422,0-2.129
	c0-3.568,0-3.568-3.621-3.469c-3.086,0.084-5.514-2.35-5.348-5.359c0.166-3.053,2.771-5.496,5.799-4.752
	c3.074,0.754,3.314-0.572,3.197-2.93c-0.109-2.129,0.113-4.279-0.063-6.396C8.696,8.974,9.71,8.317,11.833,8.421
	c2.398,0.115,4.801-0.008,7.203,0.039c1.67,0.029,2.578-0.463,2.078-2.352c-0.641-2.422-0.051-4.736,2.227-5.66
	c1.592-0.648,3.906-0.643,5.471,0.045c2.201,0.967,2.889,3.248,2.127,5.686c-0.537,1.721,0.223,2.287,1.822,2.271
	c2.58-0.021,5.16,0.064,7.734-0.023c1.893-0.066,2.787,0.539,2.66,2.592c-0.145,2.299-0.119,4.623-0.008,6.928
	c0.109,2.238-0.078,5.107-2.75,4.471c-2.674-0.639-5.27-0.721-5.953,1.77c-0.711,2.576,0.455,5.281,2.91,6.113
	c1.102,0.379,2.471,0.391,3.619,0.133c1.658-0.373,2.137,0.266,2.141,1.711c0.008,2.846-0.041,5.691,0.023,8.535
	c0.033,1.49-0.607,2.102-2.049,2.09c-2.756-0.025-5.51,0.521-8.268,0.518c-1.816-0.002-2.32-1.355-1.816-3.102
	c0.668-2.324-0.066-4.547-2.178-5.439c-1.588-0.67-3.863-0.709-5.469-0.09c-2.156,0.834-2.91,3.094-2.293,5.395
	c0.564,2.088-0.148,2.789-2.168,2.732c-2.313-0.066-4.629-0.123-6.934,0.018c-2.258,0.135-3.365-0.588-3.07-3.008
	C9.034,38.653,8.917,37.481,8.917,36.325z"/>
<path fill-rule="evenodd" clip-rule="evenodd" fill="#0C5C8E" d="M29.554,33.735c0-4.248-0.092-7.879,0.104-11.492
	c0.027-0.529,1.395-1.379,2.172-1.414c3.436-0.156,6.883-0.068,10.328-0.068c-0.26-5.75,1.129-8.09,4.648-8.223
	c3.635-0.143,5.141,2.082,5.24,8.113c2.967,0,5.959,0.139,8.936-0.045c2.295-0.141,3.019,0.738,3.019,2.9c0,3.29,0,6.469,0,10.018
	c-3.277-1.072-6.493-1.516-8.034,1.445c-0.766,1.473-0.838,3.939-0.125,5.426c1.551,3.23,4.68,2.865,8.146,1.773
	c0,4.207,0.061,8.063-0.088,11.908c-0.016,0.422-1.242,1.105-1.926,1.129c-3.443,0.117-6.891,0.053-10.824,0.053
	c0.988,2.992,1.414,5.795-1.232,7.67c-0.998,0.707-2.479,1.146-3.691,1.061c-3.592-0.258-4.834-2.951-4.039-8.797
	c-3.203,0-6.375-0.16-9.527,0.053c-2.559,0.178-3.236-0.803-3.098-3.201c0.182-3.139,0.045-6.297,0.045-9.768
	c3.369,1,6.162,1.379,8.063-1.607c1.174-1.83,1.162-3.713-0.047-5.5C35.69,32.302,32.95,32.399,29.554,33.735z"/>
</svg>
