<?xml version="1.0" encoding="utf-8"?>
<!-- Generator: Adobe Illustrator 16.0.0, SVG Export Plug-In . SVG Version: 6.00 Build 0)  -->
<!DOCTYPE svg PUBLIC "-//W3C//DTD SVG 1.1//EN" "http://www.w3.org/Graphics/SVG/1.1/DTD/svg11.dtd">
<svg version="1.1" id="Layer_1" xmlns="http://www.w3.org/2000/svg" xmlns:xlink="http://www.w3.org/1999/xlink" x="0px" y="0px"
	 width="64px" height="64px" viewBox="0 0 64 64" enable-background="new 0 0 64 64" xml:space="preserve">
<g>
	<path fill="#191919" d="M18.076,41.79c-1.967,1.971-3.926,3.938-5.875,5.919c-0.799,0.813-1.215,1.738-1.205,2.674
		c0.006,0.84,0.346,1.612,0.986,2.244c0.816,0.805,1.654,0.973,2.211,0.973c0.92,0,1.809-0.426,2.648-1.266
		c3.891-3.895,7.709-7.736,11.344-11.427c1.713-1.741,1.689-3.524-0.068-5.316c-1.23-1.253-2.469-2.507-3.711-3.752l-1.369-1.379
		c-2.059-2.067-4.113-4.129-6.182-6.187c-0.867-0.858-1.766-1.296-2.682-1.296c-0.535,0-1.348,0.163-2.154,0.931
		c-1.438,1.369-1.348,3.34,0.232,5.016c0.254,0.269,0.516,0.532,0.775,0.792l8.545,8.55c-0.08,0.082-0.154,0.162-0.232,0.24
		C20.252,39.602,19.16,40.691,18.076,41.79z"/>
	<path fill="#191919" d="M33.736,53.618c0.977,0.003,1.951,0.005,2.93,0.005l4.881-0.005l4.826,0.003
		c1.141,0,2.279-0.003,3.414-0.005c2.17-0.013,3.641-1.319,3.656-3.259c0.008-0.892-0.305-1.683-0.892-2.283
		c-0.663-0.674-1.612-1.033-2.741-1.036c-5.396-0.026-10.797-0.024-16.195-0.005c-2.1,0.006-3.646,1.385-3.674,3.271
		c-0.014,0.846,0.293,1.629,0.865,2.217C31.494,53.227,32.533,53.616,33.736,53.618z"/>
	<path fill="#191919" d="M0,0v64.027h64.186V0H0z M60.807,59.736H3.201V17.173h57.605V59.736L60.807,59.736z"/>
</g>
</svg>
